<mxfile host="app.diagrams.net" modified="2021-10-04T18:33:23.361Z" agent="5.0 (Windows NT 10.0; Win64; x64) AppleWebKit/537.36 (KHTML, like Gecko) Chrome/94.0.4606.61 Safari/537.36" etag="5jULaveofcNPs2dqMF6m" version="15.4.1" type="github">
  <diagram id="V-6PvVMUH32d-ZvBnuU0" name="Page-1">
    <mxGraphModel dx="7880" dy="2484" grid="1" gridSize="10" guides="1" tooltips="1" connect="1" arrows="1" fold="1" page="1" pageScale="1" pageWidth="1920" pageHeight="1200" math="0" shadow="0">
      <root>
        <mxCell id="0" />
        <mxCell id="1" parent="0" />
        <mxCell id="Jwu31BnUULOb9Iycs6mE-23" value="" style="rounded=0;whiteSpace=wrap;html=1;" parent="1" vertex="1">
          <mxGeometry x="855" y="600" width="30" height="30" as="geometry" />
        </mxCell>
        <mxCell id="Jwu31BnUULOb9Iycs6mE-15" style="edgeStyle=orthogonalEdgeStyle;rounded=0;orthogonalLoop=1;jettySize=auto;html=1;exitX=0.5;exitY=1;exitDx=0;exitDy=0;entryX=0.5;entryY=0;entryDx=0;entryDy=0;" parent="1" source="Jwu31BnUULOb9Iycs6mE-1" target="Jwu31BnUULOb9Iycs6mE-5" edge="1">
          <mxGeometry relative="1" as="geometry" />
        </mxCell>
        <mxCell id="Jwu31BnUULOb9Iycs6mE-1" value="main" style="rounded=0;whiteSpace=wrap;html=1;" parent="1" vertex="1">
          <mxGeometry x="855" y="380" width="80" height="40" as="geometry" />
        </mxCell>
        <mxCell id="Jwu31BnUULOb9Iycs6mE-3" value="" style="rounded=0;whiteSpace=wrap;html=1;" parent="1" vertex="1">
          <mxGeometry x="775" y="540" width="370" height="330" as="geometry" />
        </mxCell>
        <mxCell id="Jwu31BnUULOb9Iycs6mE-5" value="image" style="rounded=0;whiteSpace=wrap;html=1;" parent="1" vertex="1">
          <mxGeometry x="775" y="540" width="370" height="60" as="geometry" />
        </mxCell>
        <mxCell id="nRRo2VptIY6yAc5l_RTH-7" value="" style="edgeStyle=orthogonalEdgeStyle;rounded=0;orthogonalLoop=1;jettySize=auto;html=1;" parent="1" source="Jwu31BnUULOb9Iycs6mE-6" target="nRRo2VptIY6yAc5l_RTH-6" edge="1">
          <mxGeometry relative="1" as="geometry" />
        </mxCell>
        <mxCell id="Jwu31BnUULOb9Iycs6mE-6" value="information" style="rounded=0;whiteSpace=wrap;html=1;" parent="1" vertex="1">
          <mxGeometry x="775" y="630" width="110" height="30" as="geometry" />
        </mxCell>
        <mxCell id="Jwu31BnUULOb9Iycs6mE-7" value="events" style="rounded=0;whiteSpace=wrap;html=1;" parent="1" vertex="1">
          <mxGeometry x="885" y="600" width="260" height="30" as="geometry" />
        </mxCell>
        <mxCell id="Jwu31BnUULOb9Iycs6mE-10" value="" style="rounded=0;whiteSpace=wrap;html=1;" parent="1" vertex="1">
          <mxGeometry x="885" y="630" width="260" height="180" as="geometry" />
        </mxCell>
        <mxCell id="Jwu31BnUULOb9Iycs6mE-13" value="image" style="rounded=0;whiteSpace=wrap;html=1;" parent="1" vertex="1">
          <mxGeometry x="955" y="640" width="120" height="60" as="geometry" />
        </mxCell>
        <mxCell id="Jwu31BnUULOb9Iycs6mE-16" value="name of school" style="text;html=1;strokeColor=none;fillColor=none;align=center;verticalAlign=middle;whiteSpace=wrap;rounded=0;" parent="1" vertex="1">
          <mxGeometry x="775" y="570" width="120" height="30" as="geometry" />
        </mxCell>
        <mxCell id="nRRo2VptIY6yAc5l_RTH-12" value="" style="edgeStyle=orthogonalEdgeStyle;rounded=0;orthogonalLoop=1;jettySize=auto;html=1;entryX=1.003;entryY=1.275;entryDx=0;entryDy=0;entryPerimeter=0;" parent="1" source="Jwu31BnUULOb9Iycs6mE-17" target="nRRo2VptIY6yAc5l_RTH-146" edge="1">
          <mxGeometry relative="1" as="geometry">
            <mxPoint x="120" y="840" as="targetPoint" />
            <Array as="points">
              <mxPoint x="510" y="675" />
              <mxPoint x="510" y="840" />
              <mxPoint x="220" y="840" />
              <mxPoint x="220" y="921" />
            </Array>
          </mxGeometry>
        </mxCell>
        <mxCell id="Jwu31BnUULOb9Iycs6mE-17" value="schedule" style="rounded=0;whiteSpace=wrap;html=1;" parent="1" vertex="1">
          <mxGeometry x="775" y="660" width="110" height="30" as="geometry" />
        </mxCell>
        <mxCell id="ObmRaE6gTi8aWYttkkPQ-5" style="edgeStyle=orthogonalEdgeStyle;rounded=0;orthogonalLoop=1;jettySize=auto;html=1;exitX=0;exitY=0.5;exitDx=0;exitDy=0;" edge="1" parent="1" source="Jwu31BnUULOb9Iycs6mE-18" target="ObmRaE6gTi8aWYttkkPQ-6">
          <mxGeometry relative="1" as="geometry">
            <mxPoint x="870" y="1536.0001046316963" as="targetPoint" />
            <Array as="points">
              <mxPoint x="680" y="735" />
              <mxPoint x="680" y="940" />
              <mxPoint x="870" y="940" />
            </Array>
          </mxGeometry>
        </mxCell>
        <mxCell id="Jwu31BnUULOb9Iycs6mE-18" value="school newspaper" style="rounded=0;whiteSpace=wrap;html=1;" parent="1" vertex="1">
          <mxGeometry x="775" y="720" width="110" height="30" as="geometry" />
        </mxCell>
        <mxCell id="nRRo2VptIY6yAc5l_RTH-242" value="" style="edgeStyle=orthogonalEdgeStyle;rounded=0;orthogonalLoop=1;jettySize=auto;html=1;" parent="1" source="Jwu31BnUULOb9Iycs6mE-19" target="nRRo2VptIY6yAc5l_RTH-241" edge="1">
          <mxGeometry relative="1" as="geometry">
            <Array as="points">
              <mxPoint x="570" y="705" />
              <mxPoint x="570" y="1100" />
            </Array>
          </mxGeometry>
        </mxCell>
        <mxCell id="Jwu31BnUULOb9Iycs6mE-19" value="calendar" style="rounded=0;whiteSpace=wrap;html=1;" parent="1" vertex="1">
          <mxGeometry x="775" y="690" width="110" height="30" as="geometry" />
        </mxCell>
        <mxCell id="Jwu31BnUULOb9Iycs6mE-21" value="" style="endArrow=classic;startArrow=none;html=1;entryX=0;entryY=0.5;entryDx=0;entryDy=0;" parent="1" source="Jwu31BnUULOb9Iycs6mE-23" target="Jwu31BnUULOb9Iycs6mE-7" edge="1">
          <mxGeometry width="50" height="50" relative="1" as="geometry">
            <mxPoint x="858" y="615" as="sourcePoint" />
            <mxPoint x="1185" y="640" as="targetPoint" />
          </mxGeometry>
        </mxCell>
        <mxCell id="Jwu31BnUULOb9Iycs6mE-25" value="" style="endArrow=classic;startArrow=classic;html=1;exitX=0;exitY=0.5;exitDx=0;exitDy=0;" parent="1" source="Jwu31BnUULOb9Iycs6mE-7" edge="1">
          <mxGeometry width="50" height="50" relative="1" as="geometry">
            <mxPoint x="1135" y="690" as="sourcePoint" />
            <mxPoint x="855" y="615" as="targetPoint" />
          </mxGeometry>
        </mxCell>
        <mxCell id="ObmRaE6gTi8aWYttkkPQ-21" value="" style="edgeStyle=orthogonalEdgeStyle;rounded=0;orthogonalLoop=1;jettySize=auto;html=1;" edge="1" parent="1" source="p2gwI2hENf3b1LdJI1cL-1" target="ObmRaE6gTi8aWYttkkPQ-20">
          <mxGeometry relative="1" as="geometry">
            <Array as="points">
              <mxPoint x="740" y="765" />
              <mxPoint x="740" y="910" />
              <mxPoint x="1190" y="910" />
            </Array>
          </mxGeometry>
        </mxCell>
        <mxCell id="p2gwI2hENf3b1LdJI1cL-1" value="teachers" style="rounded=0;whiteSpace=wrap;html=1;" parent="1" vertex="1">
          <mxGeometry x="775" y="750" width="110" height="30" as="geometry" />
        </mxCell>
        <mxCell id="p2gwI2hENf3b1LdJI1cL-2" value="contact info" style="text;html=1;strokeColor=none;fillColor=none;align=center;verticalAlign=middle;whiteSpace=wrap;rounded=0;" parent="1" vertex="1">
          <mxGeometry x="825" y="820" width="250" height="50" as="geometry" />
        </mxCell>
        <mxCell id="p2gwI2hENf3b1LdJI1cL-3" value="about event" style="text;html=1;strokeColor=none;fillColor=none;align=center;verticalAlign=middle;whiteSpace=wrap;rounded=0;" parent="1" vertex="1">
          <mxGeometry x="955" y="680" width="70" height="20" as="geometry" />
        </mxCell>
        <mxCell id="nRRo2VptIY6yAc5l_RTH-2" value="image" style="rounded=0;whiteSpace=wrap;html=1;" parent="1" vertex="1">
          <mxGeometry x="955" y="720" width="120" height="60" as="geometry" />
        </mxCell>
        <mxCell id="nRRo2VptIY6yAc5l_RTH-3" value="about event" style="text;html=1;strokeColor=none;fillColor=none;align=center;verticalAlign=middle;whiteSpace=wrap;rounded=0;" parent="1" vertex="1">
          <mxGeometry x="955" y="760" width="70" height="20" as="geometry" />
        </mxCell>
        <mxCell id="nRRo2VptIY6yAc5l_RTH-6" value="" style="whiteSpace=wrap;html=1;rounded=0;" parent="1" vertex="1">
          <mxGeometry x="270" y="440" width="230" height="250" as="geometry" />
        </mxCell>
        <mxCell id="nRRo2VptIY6yAc5l_RTH-8" value="&lt;h1&gt;Heading&lt;/h1&gt;&lt;p&gt;Lorem ipsum dolor sit amet, consectetur adipisicing elit, sed do eiusmod tempor incididunt ut labore et dolore magna aliqua.&lt;/p&gt;" style="text;html=1;strokeColor=none;fillColor=none;spacing=5;spacingTop=-20;whiteSpace=wrap;overflow=hidden;rounded=0;" parent="1" vertex="1">
          <mxGeometry x="290" y="525" width="190" height="120" as="geometry" />
        </mxCell>
        <mxCell id="nRRo2VptIY6yAc5l_RTH-9" value="info about school" style="rounded=0;whiteSpace=wrap;html=1;" parent="1" vertex="1">
          <mxGeometry x="270" y="440" width="230" height="50" as="geometry" />
        </mxCell>
        <mxCell id="nRRo2VptIY6yAc5l_RTH-91" value="" style="shape=table;startSize=0;container=1;collapsible=0;childLayout=tableLayout;" parent="1" vertex="1">
          <mxGeometry x="-920" y="750" width="1020" height="320" as="geometry" />
        </mxCell>
        <mxCell id="nRRo2VptIY6yAc5l_RTH-92" value="" style="shape=partialRectangle;collapsible=0;dropTarget=0;pointerEvents=0;fillColor=none;top=0;left=0;bottom=0;right=0;points=[[0,0.5],[1,0.5]];portConstraint=eastwest;" parent="nRRo2VptIY6yAc5l_RTH-91" vertex="1">
          <mxGeometry width="1020" height="40" as="geometry" />
        </mxCell>
        <mxCell id="nRRo2VptIY6yAc5l_RTH-93" value="" style="shape=partialRectangle;html=1;whiteSpace=wrap;connectable=0;overflow=hidden;fillColor=none;top=0;left=0;bottom=0;right=0;pointerEvents=1;" parent="nRRo2VptIY6yAc5l_RTH-92" vertex="1">
          <mxGeometry width="60" height="40" as="geometry">
            <mxRectangle width="60" height="40" as="alternateBounds" />
          </mxGeometry>
        </mxCell>
        <mxCell id="nRRo2VptIY6yAc5l_RTH-94" value="V &quot;a&quot;" style="shape=partialRectangle;html=1;whiteSpace=wrap;connectable=0;overflow=hidden;fillColor=none;top=0;left=0;bottom=0;right=0;pointerEvents=1;" parent="nRRo2VptIY6yAc5l_RTH-92" vertex="1">
          <mxGeometry x="60" width="60" height="40" as="geometry">
            <mxRectangle width="60" height="40" as="alternateBounds" />
          </mxGeometry>
        </mxCell>
        <mxCell id="nRRo2VptIY6yAc5l_RTH-95" value="V &quot;b&quot;" style="shape=partialRectangle;html=1;whiteSpace=wrap;connectable=0;overflow=hidden;fillColor=none;top=0;left=0;bottom=0;right=0;pointerEvents=1;" parent="nRRo2VptIY6yAc5l_RTH-92" vertex="1">
          <mxGeometry x="120" width="60" height="40" as="geometry">
            <mxRectangle width="60" height="40" as="alternateBounds" />
          </mxGeometry>
        </mxCell>
        <mxCell id="nRRo2VptIY6yAc5l_RTH-96" value="VI &quot;a&quot;" style="shape=partialRectangle;html=1;whiteSpace=wrap;connectable=0;overflow=hidden;fillColor=none;top=0;left=0;bottom=0;right=0;pointerEvents=1;" parent="nRRo2VptIY6yAc5l_RTH-92" vertex="1">
          <mxGeometry x="180" width="60" height="40" as="geometry">
            <mxRectangle width="60" height="40" as="alternateBounds" />
          </mxGeometry>
        </mxCell>
        <mxCell id="nRRo2VptIY6yAc5l_RTH-97" value="VI &quot;b&quot;" style="shape=partialRectangle;html=1;whiteSpace=wrap;connectable=0;overflow=hidden;fillColor=none;top=0;left=0;bottom=0;right=0;pointerEvents=1;" parent="nRRo2VptIY6yAc5l_RTH-92" vertex="1">
          <mxGeometry x="240" width="60" height="40" as="geometry">
            <mxRectangle width="60" height="40" as="alternateBounds" />
          </mxGeometry>
        </mxCell>
        <mxCell id="nRRo2VptIY6yAc5l_RTH-98" value="VII &quot;a&quot;" style="shape=partialRectangle;html=1;whiteSpace=wrap;connectable=0;overflow=hidden;fillColor=none;top=0;left=0;bottom=0;right=0;pointerEvents=1;" parent="nRRo2VptIY6yAc5l_RTH-92" vertex="1">
          <mxGeometry x="300" width="60" height="40" as="geometry">
            <mxRectangle width="60" height="40" as="alternateBounds" />
          </mxGeometry>
        </mxCell>
        <mxCell id="nRRo2VptIY6yAc5l_RTH-99" value="&lt;span&gt;VII &quot;b&quot;&lt;/span&gt;" style="shape=partialRectangle;html=1;whiteSpace=wrap;connectable=0;overflow=hidden;fillColor=none;top=0;left=0;bottom=0;right=0;pointerEvents=1;" parent="nRRo2VptIY6yAc5l_RTH-92" vertex="1">
          <mxGeometry x="360" width="60" height="40" as="geometry">
            <mxRectangle width="60" height="40" as="alternateBounds" />
          </mxGeometry>
        </mxCell>
        <mxCell id="nRRo2VptIY6yAc5l_RTH-100" value="&lt;span&gt;VIII &quot;a&quot;&lt;/span&gt;" style="shape=partialRectangle;html=1;whiteSpace=wrap;connectable=0;overflow=hidden;fillColor=none;top=0;left=0;bottom=0;right=0;pointerEvents=1;" parent="nRRo2VptIY6yAc5l_RTH-92" vertex="1">
          <mxGeometry x="420" width="60" height="40" as="geometry">
            <mxRectangle width="60" height="40" as="alternateBounds" />
          </mxGeometry>
        </mxCell>
        <mxCell id="nRRo2VptIY6yAc5l_RTH-101" value="&lt;span&gt;VIII &quot;b&quot;&lt;/span&gt;" style="shape=partialRectangle;html=1;whiteSpace=wrap;connectable=0;overflow=hidden;fillColor=none;top=0;left=0;bottom=0;right=0;pointerEvents=1;" parent="nRRo2VptIY6yAc5l_RTH-92" vertex="1">
          <mxGeometry x="480" width="60" height="40" as="geometry">
            <mxRectangle width="60" height="40" as="alternateBounds" />
          </mxGeometry>
        </mxCell>
        <mxCell id="nRRo2VptIY6yAc5l_RTH-102" value="IX &quot;a&quot;" style="shape=partialRectangle;html=1;whiteSpace=wrap;connectable=0;overflow=hidden;fillColor=none;top=0;left=0;bottom=0;right=0;pointerEvents=1;" parent="nRRo2VptIY6yAc5l_RTH-92" vertex="1">
          <mxGeometry x="540" width="60" height="40" as="geometry">
            <mxRectangle width="60" height="40" as="alternateBounds" />
          </mxGeometry>
        </mxCell>
        <mxCell id="nRRo2VptIY6yAc5l_RTH-103" value="&lt;span&gt;IX &quot;b&quot;&lt;/span&gt;" style="shape=partialRectangle;html=1;whiteSpace=wrap;connectable=0;overflow=hidden;fillColor=none;top=0;left=0;bottom=0;right=0;pointerEvents=1;" parent="nRRo2VptIY6yAc5l_RTH-92" vertex="1">
          <mxGeometry x="600" width="60" height="40" as="geometry">
            <mxRectangle width="60" height="40" as="alternateBounds" />
          </mxGeometry>
        </mxCell>
        <mxCell id="nRRo2VptIY6yAc5l_RTH-104" value="&lt;span&gt;X &quot;a&quot;&lt;/span&gt;" style="shape=partialRectangle;html=1;whiteSpace=wrap;connectable=0;overflow=hidden;fillColor=none;top=0;left=0;bottom=0;right=0;pointerEvents=1;" parent="nRRo2VptIY6yAc5l_RTH-92" vertex="1">
          <mxGeometry x="660" width="60" height="40" as="geometry">
            <mxRectangle width="60" height="40" as="alternateBounds" />
          </mxGeometry>
        </mxCell>
        <mxCell id="nRRo2VptIY6yAc5l_RTH-105" value="&lt;span&gt;X &quot;b&quot;&lt;/span&gt;" style="shape=partialRectangle;html=1;whiteSpace=wrap;connectable=0;overflow=hidden;fillColor=none;top=0;left=0;bottom=0;right=0;pointerEvents=1;" parent="nRRo2VptIY6yAc5l_RTH-92" vertex="1">
          <mxGeometry x="720" width="60" height="40" as="geometry">
            <mxRectangle width="60" height="40" as="alternateBounds" />
          </mxGeometry>
        </mxCell>
        <mxCell id="nRRo2VptIY6yAc5l_RTH-106" value="XI &quot;a&quot;" style="shape=partialRectangle;html=1;whiteSpace=wrap;connectable=0;overflow=hidden;fillColor=none;top=0;left=0;bottom=0;right=0;pointerEvents=1;" parent="nRRo2VptIY6yAc5l_RTH-92" vertex="1">
          <mxGeometry x="780" width="60" height="40" as="geometry">
            <mxRectangle width="60" height="40" as="alternateBounds" />
          </mxGeometry>
        </mxCell>
        <mxCell id="nRRo2VptIY6yAc5l_RTH-107" value="&lt;span&gt;XI &quot;b&quot;&lt;/span&gt;" style="shape=partialRectangle;html=1;whiteSpace=wrap;connectable=0;overflow=hidden;fillColor=none;top=0;left=0;bottom=0;right=0;pointerEvents=1;" parent="nRRo2VptIY6yAc5l_RTH-92" vertex="1">
          <mxGeometry x="840" width="60" height="40" as="geometry">
            <mxRectangle width="60" height="40" as="alternateBounds" />
          </mxGeometry>
        </mxCell>
        <mxCell id="nRRo2VptIY6yAc5l_RTH-108" value="&lt;span&gt;XII &quot;a&quot;&lt;/span&gt;" style="shape=partialRectangle;html=1;whiteSpace=wrap;connectable=0;overflow=hidden;fillColor=none;top=0;left=0;bottom=0;right=0;pointerEvents=1;" parent="nRRo2VptIY6yAc5l_RTH-92" vertex="1">
          <mxGeometry x="900" width="60" height="40" as="geometry">
            <mxRectangle width="60" height="40" as="alternateBounds" />
          </mxGeometry>
        </mxCell>
        <mxCell id="nRRo2VptIY6yAc5l_RTH-109" value="&lt;span&gt;XII &quot;b&quot;&lt;/span&gt;" style="shape=partialRectangle;html=1;whiteSpace=wrap;connectable=0;overflow=hidden;fillColor=none;top=0;left=0;bottom=0;right=0;pointerEvents=1;" parent="nRRo2VptIY6yAc5l_RTH-92" vertex="1">
          <mxGeometry x="960" width="60" height="40" as="geometry">
            <mxRectangle width="60" height="40" as="alternateBounds" />
          </mxGeometry>
        </mxCell>
        <mxCell id="nRRo2VptIY6yAc5l_RTH-110" value="" style="shape=partialRectangle;collapsible=0;dropTarget=0;pointerEvents=0;fillColor=none;top=0;left=0;bottom=0;right=0;points=[[0,0.5],[1,0.5]];portConstraint=eastwest;" parent="nRRo2VptIY6yAc5l_RTH-91" vertex="1">
          <mxGeometry y="40" width="1020" height="40" as="geometry" />
        </mxCell>
        <mxCell id="nRRo2VptIY6yAc5l_RTH-111" value="" style="shape=partialRectangle;html=1;whiteSpace=wrap;connectable=0;overflow=hidden;fillColor=none;top=0;left=0;bottom=0;right=0;pointerEvents=1;" parent="nRRo2VptIY6yAc5l_RTH-110" vertex="1">
          <mxGeometry width="60" height="40" as="geometry">
            <mxRectangle width="60" height="40" as="alternateBounds" />
          </mxGeometry>
        </mxCell>
        <mxCell id="nRRo2VptIY6yAc5l_RTH-112" value="" style="shape=partialRectangle;html=1;whiteSpace=wrap;connectable=0;overflow=hidden;fillColor=none;top=0;left=0;bottom=0;right=0;pointerEvents=1;" parent="nRRo2VptIY6yAc5l_RTH-110" vertex="1">
          <mxGeometry x="60" width="60" height="40" as="geometry">
            <mxRectangle width="60" height="40" as="alternateBounds" />
          </mxGeometry>
        </mxCell>
        <mxCell id="nRRo2VptIY6yAc5l_RTH-113" value="" style="shape=partialRectangle;html=1;whiteSpace=wrap;connectable=0;overflow=hidden;fillColor=none;top=0;left=0;bottom=0;right=0;pointerEvents=1;" parent="nRRo2VptIY6yAc5l_RTH-110" vertex="1">
          <mxGeometry x="120" width="60" height="40" as="geometry">
            <mxRectangle width="60" height="40" as="alternateBounds" />
          </mxGeometry>
        </mxCell>
        <mxCell id="nRRo2VptIY6yAc5l_RTH-114" value="" style="shape=partialRectangle;html=1;whiteSpace=wrap;connectable=0;overflow=hidden;fillColor=none;top=0;left=0;bottom=0;right=0;pointerEvents=1;" parent="nRRo2VptIY6yAc5l_RTH-110" vertex="1">
          <mxGeometry x="180" width="60" height="40" as="geometry">
            <mxRectangle width="60" height="40" as="alternateBounds" />
          </mxGeometry>
        </mxCell>
        <mxCell id="nRRo2VptIY6yAc5l_RTH-115" value="" style="shape=partialRectangle;html=1;whiteSpace=wrap;connectable=0;overflow=hidden;fillColor=none;top=0;left=0;bottom=0;right=0;pointerEvents=1;" parent="nRRo2VptIY6yAc5l_RTH-110" vertex="1">
          <mxGeometry x="240" width="60" height="40" as="geometry">
            <mxRectangle width="60" height="40" as="alternateBounds" />
          </mxGeometry>
        </mxCell>
        <mxCell id="nRRo2VptIY6yAc5l_RTH-116" value="" style="shape=partialRectangle;html=1;whiteSpace=wrap;connectable=0;overflow=hidden;fillColor=none;top=0;left=0;bottom=0;right=0;pointerEvents=1;" parent="nRRo2VptIY6yAc5l_RTH-110" vertex="1">
          <mxGeometry x="300" width="60" height="40" as="geometry">
            <mxRectangle width="60" height="40" as="alternateBounds" />
          </mxGeometry>
        </mxCell>
        <mxCell id="nRRo2VptIY6yAc5l_RTH-117" value="" style="shape=partialRectangle;html=1;whiteSpace=wrap;connectable=0;overflow=hidden;fillColor=none;top=0;left=0;bottom=0;right=0;pointerEvents=1;" parent="nRRo2VptIY6yAc5l_RTH-110" vertex="1">
          <mxGeometry x="360" width="60" height="40" as="geometry">
            <mxRectangle width="60" height="40" as="alternateBounds" />
          </mxGeometry>
        </mxCell>
        <mxCell id="nRRo2VptIY6yAc5l_RTH-118" value="" style="shape=partialRectangle;html=1;whiteSpace=wrap;connectable=0;overflow=hidden;fillColor=none;top=0;left=0;bottom=0;right=0;pointerEvents=1;" parent="nRRo2VptIY6yAc5l_RTH-110" vertex="1">
          <mxGeometry x="420" width="60" height="40" as="geometry">
            <mxRectangle width="60" height="40" as="alternateBounds" />
          </mxGeometry>
        </mxCell>
        <mxCell id="nRRo2VptIY6yAc5l_RTH-119" value="" style="shape=partialRectangle;html=1;whiteSpace=wrap;connectable=0;overflow=hidden;fillColor=none;top=0;left=0;bottom=0;right=0;pointerEvents=1;" parent="nRRo2VptIY6yAc5l_RTH-110" vertex="1">
          <mxGeometry x="480" width="60" height="40" as="geometry">
            <mxRectangle width="60" height="40" as="alternateBounds" />
          </mxGeometry>
        </mxCell>
        <mxCell id="nRRo2VptIY6yAc5l_RTH-120" value="" style="shape=partialRectangle;html=1;whiteSpace=wrap;connectable=0;overflow=hidden;fillColor=none;top=0;left=0;bottom=0;right=0;pointerEvents=1;" parent="nRRo2VptIY6yAc5l_RTH-110" vertex="1">
          <mxGeometry x="540" width="60" height="40" as="geometry">
            <mxRectangle width="60" height="40" as="alternateBounds" />
          </mxGeometry>
        </mxCell>
        <mxCell id="nRRo2VptIY6yAc5l_RTH-121" value="" style="shape=partialRectangle;html=1;whiteSpace=wrap;connectable=0;overflow=hidden;fillColor=none;top=0;left=0;bottom=0;right=0;pointerEvents=1;" parent="nRRo2VptIY6yAc5l_RTH-110" vertex="1">
          <mxGeometry x="600" width="60" height="40" as="geometry">
            <mxRectangle width="60" height="40" as="alternateBounds" />
          </mxGeometry>
        </mxCell>
        <mxCell id="nRRo2VptIY6yAc5l_RTH-122" value="" style="shape=partialRectangle;html=1;whiteSpace=wrap;connectable=0;overflow=hidden;fillColor=none;top=0;left=0;bottom=0;right=0;pointerEvents=1;" parent="nRRo2VptIY6yAc5l_RTH-110" vertex="1">
          <mxGeometry x="660" width="60" height="40" as="geometry">
            <mxRectangle width="60" height="40" as="alternateBounds" />
          </mxGeometry>
        </mxCell>
        <mxCell id="nRRo2VptIY6yAc5l_RTH-123" value="" style="shape=partialRectangle;html=1;whiteSpace=wrap;connectable=0;overflow=hidden;fillColor=none;top=0;left=0;bottom=0;right=0;pointerEvents=1;" parent="nRRo2VptIY6yAc5l_RTH-110" vertex="1">
          <mxGeometry x="720" width="60" height="40" as="geometry">
            <mxRectangle width="60" height="40" as="alternateBounds" />
          </mxGeometry>
        </mxCell>
        <mxCell id="nRRo2VptIY6yAc5l_RTH-124" value="" style="shape=partialRectangle;html=1;whiteSpace=wrap;connectable=0;overflow=hidden;fillColor=none;top=0;left=0;bottom=0;right=0;pointerEvents=1;" parent="nRRo2VptIY6yAc5l_RTH-110" vertex="1">
          <mxGeometry x="780" width="60" height="40" as="geometry">
            <mxRectangle width="60" height="40" as="alternateBounds" />
          </mxGeometry>
        </mxCell>
        <mxCell id="nRRo2VptIY6yAc5l_RTH-125" value="" style="shape=partialRectangle;html=1;whiteSpace=wrap;connectable=0;overflow=hidden;fillColor=none;top=0;left=0;bottom=0;right=0;pointerEvents=1;" parent="nRRo2VptIY6yAc5l_RTH-110" vertex="1">
          <mxGeometry x="840" width="60" height="40" as="geometry">
            <mxRectangle width="60" height="40" as="alternateBounds" />
          </mxGeometry>
        </mxCell>
        <mxCell id="nRRo2VptIY6yAc5l_RTH-126" value="" style="shape=partialRectangle;html=1;whiteSpace=wrap;connectable=0;overflow=hidden;fillColor=none;top=0;left=0;bottom=0;right=0;pointerEvents=1;" parent="nRRo2VptIY6yAc5l_RTH-110" vertex="1">
          <mxGeometry x="900" width="60" height="40" as="geometry">
            <mxRectangle width="60" height="40" as="alternateBounds" />
          </mxGeometry>
        </mxCell>
        <mxCell id="nRRo2VptIY6yAc5l_RTH-127" value="" style="shape=partialRectangle;html=1;whiteSpace=wrap;connectable=0;overflow=hidden;fillColor=none;top=0;left=0;bottom=0;right=0;pointerEvents=1;" parent="nRRo2VptIY6yAc5l_RTH-110" vertex="1">
          <mxGeometry x="960" width="60" height="40" as="geometry">
            <mxRectangle width="60" height="40" as="alternateBounds" />
          </mxGeometry>
        </mxCell>
        <mxCell id="nRRo2VptIY6yAc5l_RTH-128" value="" style="shape=partialRectangle;collapsible=0;dropTarget=0;pointerEvents=0;fillColor=none;top=0;left=0;bottom=0;right=0;points=[[0,0.5],[1,0.5]];portConstraint=eastwest;" parent="nRRo2VptIY6yAc5l_RTH-91" vertex="1">
          <mxGeometry y="80" width="1020" height="40" as="geometry" />
        </mxCell>
        <mxCell id="nRRo2VptIY6yAc5l_RTH-129" value="" style="shape=partialRectangle;html=1;whiteSpace=wrap;connectable=0;overflow=hidden;fillColor=none;top=0;left=0;bottom=0;right=0;pointerEvents=1;" parent="nRRo2VptIY6yAc5l_RTH-128" vertex="1">
          <mxGeometry width="60" height="40" as="geometry">
            <mxRectangle width="60" height="40" as="alternateBounds" />
          </mxGeometry>
        </mxCell>
        <mxCell id="nRRo2VptIY6yAc5l_RTH-130" value="" style="shape=partialRectangle;html=1;whiteSpace=wrap;connectable=0;overflow=hidden;fillColor=none;top=0;left=0;bottom=0;right=0;pointerEvents=1;" parent="nRRo2VptIY6yAc5l_RTH-128" vertex="1">
          <mxGeometry x="60" width="60" height="40" as="geometry">
            <mxRectangle width="60" height="40" as="alternateBounds" />
          </mxGeometry>
        </mxCell>
        <mxCell id="nRRo2VptIY6yAc5l_RTH-131" value="" style="shape=partialRectangle;html=1;whiteSpace=wrap;connectable=0;overflow=hidden;fillColor=none;top=0;left=0;bottom=0;right=0;pointerEvents=1;" parent="nRRo2VptIY6yAc5l_RTH-128" vertex="1">
          <mxGeometry x="120" width="60" height="40" as="geometry">
            <mxRectangle width="60" height="40" as="alternateBounds" />
          </mxGeometry>
        </mxCell>
        <mxCell id="nRRo2VptIY6yAc5l_RTH-132" value="" style="shape=partialRectangle;html=1;whiteSpace=wrap;connectable=0;overflow=hidden;fillColor=none;top=0;left=0;bottom=0;right=0;pointerEvents=1;" parent="nRRo2VptIY6yAc5l_RTH-128" vertex="1">
          <mxGeometry x="180" width="60" height="40" as="geometry">
            <mxRectangle width="60" height="40" as="alternateBounds" />
          </mxGeometry>
        </mxCell>
        <mxCell id="nRRo2VptIY6yAc5l_RTH-133" value="" style="shape=partialRectangle;html=1;whiteSpace=wrap;connectable=0;overflow=hidden;fillColor=none;top=0;left=0;bottom=0;right=0;pointerEvents=1;" parent="nRRo2VptIY6yAc5l_RTH-128" vertex="1">
          <mxGeometry x="240" width="60" height="40" as="geometry">
            <mxRectangle width="60" height="40" as="alternateBounds" />
          </mxGeometry>
        </mxCell>
        <mxCell id="nRRo2VptIY6yAc5l_RTH-134" value="" style="shape=partialRectangle;html=1;whiteSpace=wrap;connectable=0;overflow=hidden;fillColor=none;top=0;left=0;bottom=0;right=0;pointerEvents=1;" parent="nRRo2VptIY6yAc5l_RTH-128" vertex="1">
          <mxGeometry x="300" width="60" height="40" as="geometry">
            <mxRectangle width="60" height="40" as="alternateBounds" />
          </mxGeometry>
        </mxCell>
        <mxCell id="nRRo2VptIY6yAc5l_RTH-135" value="" style="shape=partialRectangle;html=1;whiteSpace=wrap;connectable=0;overflow=hidden;fillColor=none;top=0;left=0;bottom=0;right=0;pointerEvents=1;" parent="nRRo2VptIY6yAc5l_RTH-128" vertex="1">
          <mxGeometry x="360" width="60" height="40" as="geometry">
            <mxRectangle width="60" height="40" as="alternateBounds" />
          </mxGeometry>
        </mxCell>
        <mxCell id="nRRo2VptIY6yAc5l_RTH-136" value="" style="shape=partialRectangle;html=1;whiteSpace=wrap;connectable=0;overflow=hidden;fillColor=none;top=0;left=0;bottom=0;right=0;pointerEvents=1;" parent="nRRo2VptIY6yAc5l_RTH-128" vertex="1">
          <mxGeometry x="420" width="60" height="40" as="geometry">
            <mxRectangle width="60" height="40" as="alternateBounds" />
          </mxGeometry>
        </mxCell>
        <mxCell id="nRRo2VptIY6yAc5l_RTH-137" value="" style="shape=partialRectangle;html=1;whiteSpace=wrap;connectable=0;overflow=hidden;fillColor=none;top=0;left=0;bottom=0;right=0;pointerEvents=1;" parent="nRRo2VptIY6yAc5l_RTH-128" vertex="1">
          <mxGeometry x="480" width="60" height="40" as="geometry">
            <mxRectangle width="60" height="40" as="alternateBounds" />
          </mxGeometry>
        </mxCell>
        <mxCell id="nRRo2VptIY6yAc5l_RTH-138" value="" style="shape=partialRectangle;html=1;whiteSpace=wrap;connectable=0;overflow=hidden;fillColor=none;top=0;left=0;bottom=0;right=0;pointerEvents=1;" parent="nRRo2VptIY6yAc5l_RTH-128" vertex="1">
          <mxGeometry x="540" width="60" height="40" as="geometry">
            <mxRectangle width="60" height="40" as="alternateBounds" />
          </mxGeometry>
        </mxCell>
        <mxCell id="nRRo2VptIY6yAc5l_RTH-139" value="" style="shape=partialRectangle;html=1;whiteSpace=wrap;connectable=0;overflow=hidden;fillColor=none;top=0;left=0;bottom=0;right=0;pointerEvents=1;" parent="nRRo2VptIY6yAc5l_RTH-128" vertex="1">
          <mxGeometry x="600" width="60" height="40" as="geometry">
            <mxRectangle width="60" height="40" as="alternateBounds" />
          </mxGeometry>
        </mxCell>
        <mxCell id="nRRo2VptIY6yAc5l_RTH-140" value="" style="shape=partialRectangle;html=1;whiteSpace=wrap;connectable=0;overflow=hidden;fillColor=none;top=0;left=0;bottom=0;right=0;pointerEvents=1;" parent="nRRo2VptIY6yAc5l_RTH-128" vertex="1">
          <mxGeometry x="660" width="60" height="40" as="geometry">
            <mxRectangle width="60" height="40" as="alternateBounds" />
          </mxGeometry>
        </mxCell>
        <mxCell id="nRRo2VptIY6yAc5l_RTH-141" value="" style="shape=partialRectangle;html=1;whiteSpace=wrap;connectable=0;overflow=hidden;fillColor=none;top=0;left=0;bottom=0;right=0;pointerEvents=1;" parent="nRRo2VptIY6yAc5l_RTH-128" vertex="1">
          <mxGeometry x="720" width="60" height="40" as="geometry">
            <mxRectangle width="60" height="40" as="alternateBounds" />
          </mxGeometry>
        </mxCell>
        <mxCell id="nRRo2VptIY6yAc5l_RTH-142" value="" style="shape=partialRectangle;html=1;whiteSpace=wrap;connectable=0;overflow=hidden;fillColor=none;top=0;left=0;bottom=0;right=0;pointerEvents=1;" parent="nRRo2VptIY6yAc5l_RTH-128" vertex="1">
          <mxGeometry x="780" width="60" height="40" as="geometry">
            <mxRectangle width="60" height="40" as="alternateBounds" />
          </mxGeometry>
        </mxCell>
        <mxCell id="nRRo2VptIY6yAc5l_RTH-143" value="" style="shape=partialRectangle;html=1;whiteSpace=wrap;connectable=0;overflow=hidden;fillColor=none;top=0;left=0;bottom=0;right=0;pointerEvents=1;" parent="nRRo2VptIY6yAc5l_RTH-128" vertex="1">
          <mxGeometry x="840" width="60" height="40" as="geometry">
            <mxRectangle width="60" height="40" as="alternateBounds" />
          </mxGeometry>
        </mxCell>
        <mxCell id="nRRo2VptIY6yAc5l_RTH-144" value="" style="shape=partialRectangle;html=1;whiteSpace=wrap;connectable=0;overflow=hidden;fillColor=none;top=0;left=0;bottom=0;right=0;pointerEvents=1;" parent="nRRo2VptIY6yAc5l_RTH-128" vertex="1">
          <mxGeometry x="900" width="60" height="40" as="geometry">
            <mxRectangle width="60" height="40" as="alternateBounds" />
          </mxGeometry>
        </mxCell>
        <mxCell id="nRRo2VptIY6yAc5l_RTH-145" value="" style="shape=partialRectangle;html=1;whiteSpace=wrap;connectable=0;overflow=hidden;fillColor=none;top=0;left=0;bottom=0;right=0;pointerEvents=1;" parent="nRRo2VptIY6yAc5l_RTH-128" vertex="1">
          <mxGeometry x="960" width="60" height="40" as="geometry">
            <mxRectangle width="60" height="40" as="alternateBounds" />
          </mxGeometry>
        </mxCell>
        <mxCell id="nRRo2VptIY6yAc5l_RTH-146" value="" style="shape=partialRectangle;collapsible=0;dropTarget=0;pointerEvents=0;fillColor=none;top=0;left=0;bottom=0;right=0;points=[[0,0.5],[1,0.5]];portConstraint=eastwest;" parent="nRRo2VptIY6yAc5l_RTH-91" vertex="1">
          <mxGeometry y="120" width="1020" height="40" as="geometry" />
        </mxCell>
        <mxCell id="nRRo2VptIY6yAc5l_RTH-147" value="&lt;font style=&quot;font-size: 11px&quot;&gt;Wednesday&lt;/font&gt;" style="shape=partialRectangle;html=1;whiteSpace=wrap;connectable=0;overflow=hidden;fillColor=none;top=0;left=0;bottom=0;right=0;pointerEvents=1;" parent="nRRo2VptIY6yAc5l_RTH-146" vertex="1">
          <mxGeometry width="60" height="40" as="geometry">
            <mxRectangle width="60" height="40" as="alternateBounds" />
          </mxGeometry>
        </mxCell>
        <mxCell id="nRRo2VptIY6yAc5l_RTH-148" value="" style="shape=partialRectangle;html=1;whiteSpace=wrap;connectable=0;overflow=hidden;fillColor=none;top=0;left=0;bottom=0;right=0;pointerEvents=1;" parent="nRRo2VptIY6yAc5l_RTH-146" vertex="1">
          <mxGeometry x="60" width="60" height="40" as="geometry">
            <mxRectangle width="60" height="40" as="alternateBounds" />
          </mxGeometry>
        </mxCell>
        <mxCell id="nRRo2VptIY6yAc5l_RTH-149" value="" style="shape=partialRectangle;html=1;whiteSpace=wrap;connectable=0;overflow=hidden;fillColor=none;top=0;left=0;bottom=0;right=0;pointerEvents=1;" parent="nRRo2VptIY6yAc5l_RTH-146" vertex="1">
          <mxGeometry x="120" width="60" height="40" as="geometry">
            <mxRectangle width="60" height="40" as="alternateBounds" />
          </mxGeometry>
        </mxCell>
        <mxCell id="nRRo2VptIY6yAc5l_RTH-150" value="" style="shape=partialRectangle;html=1;whiteSpace=wrap;connectable=0;overflow=hidden;fillColor=none;top=0;left=0;bottom=0;right=0;pointerEvents=1;" parent="nRRo2VptIY6yAc5l_RTH-146" vertex="1">
          <mxGeometry x="180" width="60" height="40" as="geometry">
            <mxRectangle width="60" height="40" as="alternateBounds" />
          </mxGeometry>
        </mxCell>
        <mxCell id="nRRo2VptIY6yAc5l_RTH-151" value="" style="shape=partialRectangle;html=1;whiteSpace=wrap;connectable=0;overflow=hidden;fillColor=none;top=0;left=0;bottom=0;right=0;pointerEvents=1;" parent="nRRo2VptIY6yAc5l_RTH-146" vertex="1">
          <mxGeometry x="240" width="60" height="40" as="geometry">
            <mxRectangle width="60" height="40" as="alternateBounds" />
          </mxGeometry>
        </mxCell>
        <mxCell id="nRRo2VptIY6yAc5l_RTH-152" value="" style="shape=partialRectangle;html=1;whiteSpace=wrap;connectable=0;overflow=hidden;fillColor=none;top=0;left=0;bottom=0;right=0;pointerEvents=1;" parent="nRRo2VptIY6yAc5l_RTH-146" vertex="1">
          <mxGeometry x="300" width="60" height="40" as="geometry">
            <mxRectangle width="60" height="40" as="alternateBounds" />
          </mxGeometry>
        </mxCell>
        <mxCell id="nRRo2VptIY6yAc5l_RTH-153" value="" style="shape=partialRectangle;html=1;whiteSpace=wrap;connectable=0;overflow=hidden;fillColor=none;top=0;left=0;bottom=0;right=0;pointerEvents=1;" parent="nRRo2VptIY6yAc5l_RTH-146" vertex="1">
          <mxGeometry x="360" width="60" height="40" as="geometry">
            <mxRectangle width="60" height="40" as="alternateBounds" />
          </mxGeometry>
        </mxCell>
        <mxCell id="nRRo2VptIY6yAc5l_RTH-154" value="" style="shape=partialRectangle;html=1;whiteSpace=wrap;connectable=0;overflow=hidden;fillColor=none;top=0;left=0;bottom=0;right=0;pointerEvents=1;" parent="nRRo2VptIY6yAc5l_RTH-146" vertex="1">
          <mxGeometry x="420" width="60" height="40" as="geometry">
            <mxRectangle width="60" height="40" as="alternateBounds" />
          </mxGeometry>
        </mxCell>
        <mxCell id="nRRo2VptIY6yAc5l_RTH-155" value="" style="shape=partialRectangle;html=1;whiteSpace=wrap;connectable=0;overflow=hidden;fillColor=none;top=0;left=0;bottom=0;right=0;pointerEvents=1;" parent="nRRo2VptIY6yAc5l_RTH-146" vertex="1">
          <mxGeometry x="480" width="60" height="40" as="geometry">
            <mxRectangle width="60" height="40" as="alternateBounds" />
          </mxGeometry>
        </mxCell>
        <mxCell id="nRRo2VptIY6yAc5l_RTH-156" value="" style="shape=partialRectangle;html=1;whiteSpace=wrap;connectable=0;overflow=hidden;fillColor=none;top=0;left=0;bottom=0;right=0;pointerEvents=1;" parent="nRRo2VptIY6yAc5l_RTH-146" vertex="1">
          <mxGeometry x="540" width="60" height="40" as="geometry">
            <mxRectangle width="60" height="40" as="alternateBounds" />
          </mxGeometry>
        </mxCell>
        <mxCell id="nRRo2VptIY6yAc5l_RTH-157" value="" style="shape=partialRectangle;html=1;whiteSpace=wrap;connectable=0;overflow=hidden;fillColor=none;top=0;left=0;bottom=0;right=0;pointerEvents=1;" parent="nRRo2VptIY6yAc5l_RTH-146" vertex="1">
          <mxGeometry x="600" width="60" height="40" as="geometry">
            <mxRectangle width="60" height="40" as="alternateBounds" />
          </mxGeometry>
        </mxCell>
        <mxCell id="nRRo2VptIY6yAc5l_RTH-158" value="" style="shape=partialRectangle;html=1;whiteSpace=wrap;connectable=0;overflow=hidden;fillColor=none;top=0;left=0;bottom=0;right=0;pointerEvents=1;" parent="nRRo2VptIY6yAc5l_RTH-146" vertex="1">
          <mxGeometry x="660" width="60" height="40" as="geometry">
            <mxRectangle width="60" height="40" as="alternateBounds" />
          </mxGeometry>
        </mxCell>
        <mxCell id="nRRo2VptIY6yAc5l_RTH-159" value="" style="shape=partialRectangle;html=1;whiteSpace=wrap;connectable=0;overflow=hidden;fillColor=none;top=0;left=0;bottom=0;right=0;pointerEvents=1;" parent="nRRo2VptIY6yAc5l_RTH-146" vertex="1">
          <mxGeometry x="720" width="60" height="40" as="geometry">
            <mxRectangle width="60" height="40" as="alternateBounds" />
          </mxGeometry>
        </mxCell>
        <mxCell id="nRRo2VptIY6yAc5l_RTH-160" value="" style="shape=partialRectangle;html=1;whiteSpace=wrap;connectable=0;overflow=hidden;fillColor=none;top=0;left=0;bottom=0;right=0;pointerEvents=1;" parent="nRRo2VptIY6yAc5l_RTH-146" vertex="1">
          <mxGeometry x="780" width="60" height="40" as="geometry">
            <mxRectangle width="60" height="40" as="alternateBounds" />
          </mxGeometry>
        </mxCell>
        <mxCell id="nRRo2VptIY6yAc5l_RTH-161" value="" style="shape=partialRectangle;html=1;whiteSpace=wrap;connectable=0;overflow=hidden;fillColor=none;top=0;left=0;bottom=0;right=0;pointerEvents=1;" parent="nRRo2VptIY6yAc5l_RTH-146" vertex="1">
          <mxGeometry x="840" width="60" height="40" as="geometry">
            <mxRectangle width="60" height="40" as="alternateBounds" />
          </mxGeometry>
        </mxCell>
        <mxCell id="nRRo2VptIY6yAc5l_RTH-162" value="" style="shape=partialRectangle;html=1;whiteSpace=wrap;connectable=0;overflow=hidden;fillColor=none;top=0;left=0;bottom=0;right=0;pointerEvents=1;" parent="nRRo2VptIY6yAc5l_RTH-146" vertex="1">
          <mxGeometry x="900" width="60" height="40" as="geometry">
            <mxRectangle width="60" height="40" as="alternateBounds" />
          </mxGeometry>
        </mxCell>
        <mxCell id="nRRo2VptIY6yAc5l_RTH-163" value="" style="shape=partialRectangle;html=1;whiteSpace=wrap;connectable=0;overflow=hidden;fillColor=none;top=0;left=0;bottom=0;right=0;pointerEvents=1;" parent="nRRo2VptIY6yAc5l_RTH-146" vertex="1">
          <mxGeometry x="960" width="60" height="40" as="geometry">
            <mxRectangle width="60" height="40" as="alternateBounds" />
          </mxGeometry>
        </mxCell>
        <mxCell id="nRRo2VptIY6yAc5l_RTH-164" value="" style="shape=partialRectangle;collapsible=0;dropTarget=0;pointerEvents=0;fillColor=none;top=0;left=0;bottom=0;right=0;points=[[0,0.5],[1,0.5]];portConstraint=eastwest;" parent="nRRo2VptIY6yAc5l_RTH-91" vertex="1">
          <mxGeometry y="160" width="1020" height="40" as="geometry" />
        </mxCell>
        <mxCell id="nRRo2VptIY6yAc5l_RTH-165" value="Thursday" style="shape=partialRectangle;html=1;whiteSpace=wrap;connectable=0;overflow=hidden;fillColor=none;top=0;left=0;bottom=0;right=0;pointerEvents=1;" parent="nRRo2VptIY6yAc5l_RTH-164" vertex="1">
          <mxGeometry width="60" height="40" as="geometry">
            <mxRectangle width="60" height="40" as="alternateBounds" />
          </mxGeometry>
        </mxCell>
        <mxCell id="nRRo2VptIY6yAc5l_RTH-166" value="" style="shape=partialRectangle;html=1;whiteSpace=wrap;connectable=0;overflow=hidden;fillColor=none;top=0;left=0;bottom=0;right=0;pointerEvents=1;" parent="nRRo2VptIY6yAc5l_RTH-164" vertex="1">
          <mxGeometry x="60" width="60" height="40" as="geometry">
            <mxRectangle width="60" height="40" as="alternateBounds" />
          </mxGeometry>
        </mxCell>
        <mxCell id="nRRo2VptIY6yAc5l_RTH-167" value="" style="shape=partialRectangle;html=1;whiteSpace=wrap;connectable=0;overflow=hidden;fillColor=none;top=0;left=0;bottom=0;right=0;pointerEvents=1;" parent="nRRo2VptIY6yAc5l_RTH-164" vertex="1">
          <mxGeometry x="120" width="60" height="40" as="geometry">
            <mxRectangle width="60" height="40" as="alternateBounds" />
          </mxGeometry>
        </mxCell>
        <mxCell id="nRRo2VptIY6yAc5l_RTH-168" value="" style="shape=partialRectangle;html=1;whiteSpace=wrap;connectable=0;overflow=hidden;fillColor=none;top=0;left=0;bottom=0;right=0;pointerEvents=1;" parent="nRRo2VptIY6yAc5l_RTH-164" vertex="1">
          <mxGeometry x="180" width="60" height="40" as="geometry">
            <mxRectangle width="60" height="40" as="alternateBounds" />
          </mxGeometry>
        </mxCell>
        <mxCell id="nRRo2VptIY6yAc5l_RTH-169" value="" style="shape=partialRectangle;html=1;whiteSpace=wrap;connectable=0;overflow=hidden;fillColor=none;top=0;left=0;bottom=0;right=0;pointerEvents=1;" parent="nRRo2VptIY6yAc5l_RTH-164" vertex="1">
          <mxGeometry x="240" width="60" height="40" as="geometry">
            <mxRectangle width="60" height="40" as="alternateBounds" />
          </mxGeometry>
        </mxCell>
        <mxCell id="nRRo2VptIY6yAc5l_RTH-170" value="" style="shape=partialRectangle;html=1;whiteSpace=wrap;connectable=0;overflow=hidden;fillColor=none;top=0;left=0;bottom=0;right=0;pointerEvents=1;" parent="nRRo2VptIY6yAc5l_RTH-164" vertex="1">
          <mxGeometry x="300" width="60" height="40" as="geometry">
            <mxRectangle width="60" height="40" as="alternateBounds" />
          </mxGeometry>
        </mxCell>
        <mxCell id="nRRo2VptIY6yAc5l_RTH-171" value="" style="shape=partialRectangle;html=1;whiteSpace=wrap;connectable=0;overflow=hidden;fillColor=none;top=0;left=0;bottom=0;right=0;pointerEvents=1;" parent="nRRo2VptIY6yAc5l_RTH-164" vertex="1">
          <mxGeometry x="360" width="60" height="40" as="geometry">
            <mxRectangle width="60" height="40" as="alternateBounds" />
          </mxGeometry>
        </mxCell>
        <mxCell id="nRRo2VptIY6yAc5l_RTH-172" value="" style="shape=partialRectangle;html=1;whiteSpace=wrap;connectable=0;overflow=hidden;fillColor=none;top=0;left=0;bottom=0;right=0;pointerEvents=1;" parent="nRRo2VptIY6yAc5l_RTH-164" vertex="1">
          <mxGeometry x="420" width="60" height="40" as="geometry">
            <mxRectangle width="60" height="40" as="alternateBounds" />
          </mxGeometry>
        </mxCell>
        <mxCell id="nRRo2VptIY6yAc5l_RTH-173" value="" style="shape=partialRectangle;html=1;whiteSpace=wrap;connectable=0;overflow=hidden;fillColor=none;top=0;left=0;bottom=0;right=0;pointerEvents=1;" parent="nRRo2VptIY6yAc5l_RTH-164" vertex="1">
          <mxGeometry x="480" width="60" height="40" as="geometry">
            <mxRectangle width="60" height="40" as="alternateBounds" />
          </mxGeometry>
        </mxCell>
        <mxCell id="nRRo2VptIY6yAc5l_RTH-174" value="" style="shape=partialRectangle;html=1;whiteSpace=wrap;connectable=0;overflow=hidden;fillColor=none;top=0;left=0;bottom=0;right=0;pointerEvents=1;" parent="nRRo2VptIY6yAc5l_RTH-164" vertex="1">
          <mxGeometry x="540" width="60" height="40" as="geometry">
            <mxRectangle width="60" height="40" as="alternateBounds" />
          </mxGeometry>
        </mxCell>
        <mxCell id="nRRo2VptIY6yAc5l_RTH-175" value="" style="shape=partialRectangle;html=1;whiteSpace=wrap;connectable=0;overflow=hidden;fillColor=none;top=0;left=0;bottom=0;right=0;pointerEvents=1;" parent="nRRo2VptIY6yAc5l_RTH-164" vertex="1">
          <mxGeometry x="600" width="60" height="40" as="geometry">
            <mxRectangle width="60" height="40" as="alternateBounds" />
          </mxGeometry>
        </mxCell>
        <mxCell id="nRRo2VptIY6yAc5l_RTH-176" value="" style="shape=partialRectangle;html=1;whiteSpace=wrap;connectable=0;overflow=hidden;fillColor=none;top=0;left=0;bottom=0;right=0;pointerEvents=1;" parent="nRRo2VptIY6yAc5l_RTH-164" vertex="1">
          <mxGeometry x="660" width="60" height="40" as="geometry">
            <mxRectangle width="60" height="40" as="alternateBounds" />
          </mxGeometry>
        </mxCell>
        <mxCell id="nRRo2VptIY6yAc5l_RTH-177" value="" style="shape=partialRectangle;html=1;whiteSpace=wrap;connectable=0;overflow=hidden;fillColor=none;top=0;left=0;bottom=0;right=0;pointerEvents=1;" parent="nRRo2VptIY6yAc5l_RTH-164" vertex="1">
          <mxGeometry x="720" width="60" height="40" as="geometry">
            <mxRectangle width="60" height="40" as="alternateBounds" />
          </mxGeometry>
        </mxCell>
        <mxCell id="nRRo2VptIY6yAc5l_RTH-178" value="" style="shape=partialRectangle;html=1;whiteSpace=wrap;connectable=0;overflow=hidden;fillColor=none;top=0;left=0;bottom=0;right=0;pointerEvents=1;" parent="nRRo2VptIY6yAc5l_RTH-164" vertex="1">
          <mxGeometry x="780" width="60" height="40" as="geometry">
            <mxRectangle width="60" height="40" as="alternateBounds" />
          </mxGeometry>
        </mxCell>
        <mxCell id="nRRo2VptIY6yAc5l_RTH-179" value="" style="shape=partialRectangle;html=1;whiteSpace=wrap;connectable=0;overflow=hidden;fillColor=none;top=0;left=0;bottom=0;right=0;pointerEvents=1;" parent="nRRo2VptIY6yAc5l_RTH-164" vertex="1">
          <mxGeometry x="840" width="60" height="40" as="geometry">
            <mxRectangle width="60" height="40" as="alternateBounds" />
          </mxGeometry>
        </mxCell>
        <mxCell id="nRRo2VptIY6yAc5l_RTH-180" value="" style="shape=partialRectangle;html=1;whiteSpace=wrap;connectable=0;overflow=hidden;fillColor=none;top=0;left=0;bottom=0;right=0;pointerEvents=1;" parent="nRRo2VptIY6yAc5l_RTH-164" vertex="1">
          <mxGeometry x="900" width="60" height="40" as="geometry">
            <mxRectangle width="60" height="40" as="alternateBounds" />
          </mxGeometry>
        </mxCell>
        <mxCell id="nRRo2VptIY6yAc5l_RTH-181" value="" style="shape=partialRectangle;html=1;whiteSpace=wrap;connectable=0;overflow=hidden;fillColor=none;top=0;left=0;bottom=0;right=0;pointerEvents=1;" parent="nRRo2VptIY6yAc5l_RTH-164" vertex="1">
          <mxGeometry x="960" width="60" height="40" as="geometry">
            <mxRectangle width="60" height="40" as="alternateBounds" />
          </mxGeometry>
        </mxCell>
        <mxCell id="nRRo2VptIY6yAc5l_RTH-182" value="" style="shape=partialRectangle;collapsible=0;dropTarget=0;pointerEvents=0;fillColor=none;top=0;left=0;bottom=0;right=0;points=[[0,0.5],[1,0.5]];portConstraint=eastwest;" parent="nRRo2VptIY6yAc5l_RTH-91" vertex="1">
          <mxGeometry y="200" width="1020" height="40" as="geometry" />
        </mxCell>
        <mxCell id="nRRo2VptIY6yAc5l_RTH-183" value="Friday" style="shape=partialRectangle;html=1;whiteSpace=wrap;connectable=0;overflow=hidden;fillColor=none;top=0;left=0;bottom=0;right=0;pointerEvents=1;" parent="nRRo2VptIY6yAc5l_RTH-182" vertex="1">
          <mxGeometry width="60" height="40" as="geometry">
            <mxRectangle width="60" height="40" as="alternateBounds" />
          </mxGeometry>
        </mxCell>
        <mxCell id="nRRo2VptIY6yAc5l_RTH-184" value="" style="shape=partialRectangle;html=1;whiteSpace=wrap;connectable=0;overflow=hidden;fillColor=none;top=0;left=0;bottom=0;right=0;pointerEvents=1;" parent="nRRo2VptIY6yAc5l_RTH-182" vertex="1">
          <mxGeometry x="60" width="60" height="40" as="geometry">
            <mxRectangle width="60" height="40" as="alternateBounds" />
          </mxGeometry>
        </mxCell>
        <mxCell id="nRRo2VptIY6yAc5l_RTH-185" value="" style="shape=partialRectangle;html=1;whiteSpace=wrap;connectable=0;overflow=hidden;fillColor=none;top=0;left=0;bottom=0;right=0;pointerEvents=1;" parent="nRRo2VptIY6yAc5l_RTH-182" vertex="1">
          <mxGeometry x="120" width="60" height="40" as="geometry">
            <mxRectangle width="60" height="40" as="alternateBounds" />
          </mxGeometry>
        </mxCell>
        <mxCell id="nRRo2VptIY6yAc5l_RTH-186" value="" style="shape=partialRectangle;html=1;whiteSpace=wrap;connectable=0;overflow=hidden;fillColor=none;top=0;left=0;bottom=0;right=0;pointerEvents=1;" parent="nRRo2VptIY6yAc5l_RTH-182" vertex="1">
          <mxGeometry x="180" width="60" height="40" as="geometry">
            <mxRectangle width="60" height="40" as="alternateBounds" />
          </mxGeometry>
        </mxCell>
        <mxCell id="nRRo2VptIY6yAc5l_RTH-187" value="" style="shape=partialRectangle;html=1;whiteSpace=wrap;connectable=0;overflow=hidden;fillColor=none;top=0;left=0;bottom=0;right=0;pointerEvents=1;" parent="nRRo2VptIY6yAc5l_RTH-182" vertex="1">
          <mxGeometry x="240" width="60" height="40" as="geometry">
            <mxRectangle width="60" height="40" as="alternateBounds" />
          </mxGeometry>
        </mxCell>
        <mxCell id="nRRo2VptIY6yAc5l_RTH-188" value="" style="shape=partialRectangle;html=1;whiteSpace=wrap;connectable=0;overflow=hidden;fillColor=none;top=0;left=0;bottom=0;right=0;pointerEvents=1;" parent="nRRo2VptIY6yAc5l_RTH-182" vertex="1">
          <mxGeometry x="300" width="60" height="40" as="geometry">
            <mxRectangle width="60" height="40" as="alternateBounds" />
          </mxGeometry>
        </mxCell>
        <mxCell id="nRRo2VptIY6yAc5l_RTH-189" value="" style="shape=partialRectangle;html=1;whiteSpace=wrap;connectable=0;overflow=hidden;fillColor=none;top=0;left=0;bottom=0;right=0;pointerEvents=1;" parent="nRRo2VptIY6yAc5l_RTH-182" vertex="1">
          <mxGeometry x="360" width="60" height="40" as="geometry">
            <mxRectangle width="60" height="40" as="alternateBounds" />
          </mxGeometry>
        </mxCell>
        <mxCell id="nRRo2VptIY6yAc5l_RTH-190" value="" style="shape=partialRectangle;html=1;whiteSpace=wrap;connectable=0;overflow=hidden;fillColor=none;top=0;left=0;bottom=0;right=0;pointerEvents=1;" parent="nRRo2VptIY6yAc5l_RTH-182" vertex="1">
          <mxGeometry x="420" width="60" height="40" as="geometry">
            <mxRectangle width="60" height="40" as="alternateBounds" />
          </mxGeometry>
        </mxCell>
        <mxCell id="nRRo2VptIY6yAc5l_RTH-191" value="" style="shape=partialRectangle;html=1;whiteSpace=wrap;connectable=0;overflow=hidden;fillColor=none;top=0;left=0;bottom=0;right=0;pointerEvents=1;" parent="nRRo2VptIY6yAc5l_RTH-182" vertex="1">
          <mxGeometry x="480" width="60" height="40" as="geometry">
            <mxRectangle width="60" height="40" as="alternateBounds" />
          </mxGeometry>
        </mxCell>
        <mxCell id="nRRo2VptIY6yAc5l_RTH-192" value="" style="shape=partialRectangle;html=1;whiteSpace=wrap;connectable=0;overflow=hidden;fillColor=none;top=0;left=0;bottom=0;right=0;pointerEvents=1;" parent="nRRo2VptIY6yAc5l_RTH-182" vertex="1">
          <mxGeometry x="540" width="60" height="40" as="geometry">
            <mxRectangle width="60" height="40" as="alternateBounds" />
          </mxGeometry>
        </mxCell>
        <mxCell id="nRRo2VptIY6yAc5l_RTH-193" value="" style="shape=partialRectangle;html=1;whiteSpace=wrap;connectable=0;overflow=hidden;fillColor=none;top=0;left=0;bottom=0;right=0;pointerEvents=1;" parent="nRRo2VptIY6yAc5l_RTH-182" vertex="1">
          <mxGeometry x="600" width="60" height="40" as="geometry">
            <mxRectangle width="60" height="40" as="alternateBounds" />
          </mxGeometry>
        </mxCell>
        <mxCell id="nRRo2VptIY6yAc5l_RTH-194" value="" style="shape=partialRectangle;html=1;whiteSpace=wrap;connectable=0;overflow=hidden;fillColor=none;top=0;left=0;bottom=0;right=0;pointerEvents=1;" parent="nRRo2VptIY6yAc5l_RTH-182" vertex="1">
          <mxGeometry x="660" width="60" height="40" as="geometry">
            <mxRectangle width="60" height="40" as="alternateBounds" />
          </mxGeometry>
        </mxCell>
        <mxCell id="nRRo2VptIY6yAc5l_RTH-195" value="" style="shape=partialRectangle;html=1;whiteSpace=wrap;connectable=0;overflow=hidden;fillColor=none;top=0;left=0;bottom=0;right=0;pointerEvents=1;" parent="nRRo2VptIY6yAc5l_RTH-182" vertex="1">
          <mxGeometry x="720" width="60" height="40" as="geometry">
            <mxRectangle width="60" height="40" as="alternateBounds" />
          </mxGeometry>
        </mxCell>
        <mxCell id="nRRo2VptIY6yAc5l_RTH-196" value="" style="shape=partialRectangle;html=1;whiteSpace=wrap;connectable=0;overflow=hidden;fillColor=none;top=0;left=0;bottom=0;right=0;pointerEvents=1;" parent="nRRo2VptIY6yAc5l_RTH-182" vertex="1">
          <mxGeometry x="780" width="60" height="40" as="geometry">
            <mxRectangle width="60" height="40" as="alternateBounds" />
          </mxGeometry>
        </mxCell>
        <mxCell id="nRRo2VptIY6yAc5l_RTH-197" value="" style="shape=partialRectangle;html=1;whiteSpace=wrap;connectable=0;overflow=hidden;fillColor=none;top=0;left=0;bottom=0;right=0;pointerEvents=1;" parent="nRRo2VptIY6yAc5l_RTH-182" vertex="1">
          <mxGeometry x="840" width="60" height="40" as="geometry">
            <mxRectangle width="60" height="40" as="alternateBounds" />
          </mxGeometry>
        </mxCell>
        <mxCell id="nRRo2VptIY6yAc5l_RTH-198" value="" style="shape=partialRectangle;html=1;whiteSpace=wrap;connectable=0;overflow=hidden;fillColor=none;top=0;left=0;bottom=0;right=0;pointerEvents=1;" parent="nRRo2VptIY6yAc5l_RTH-182" vertex="1">
          <mxGeometry x="900" width="60" height="40" as="geometry">
            <mxRectangle width="60" height="40" as="alternateBounds" />
          </mxGeometry>
        </mxCell>
        <mxCell id="nRRo2VptIY6yAc5l_RTH-199" value="" style="shape=partialRectangle;html=1;whiteSpace=wrap;connectable=0;overflow=hidden;fillColor=none;top=0;left=0;bottom=0;right=0;pointerEvents=1;" parent="nRRo2VptIY6yAc5l_RTH-182" vertex="1">
          <mxGeometry x="960" width="60" height="40" as="geometry">
            <mxRectangle width="60" height="40" as="alternateBounds" />
          </mxGeometry>
        </mxCell>
        <mxCell id="nRRo2VptIY6yAc5l_RTH-200" value="" style="shape=partialRectangle;collapsible=0;dropTarget=0;pointerEvents=0;fillColor=none;top=0;left=0;bottom=0;right=0;points=[[0,0.5],[1,0.5]];portConstraint=eastwest;" parent="nRRo2VptIY6yAc5l_RTH-91" vertex="1">
          <mxGeometry y="240" width="1020" height="40" as="geometry" />
        </mxCell>
        <mxCell id="nRRo2VptIY6yAc5l_RTH-201" value="Saturday" style="shape=partialRectangle;html=1;whiteSpace=wrap;connectable=0;overflow=hidden;fillColor=none;top=0;left=0;bottom=0;right=0;pointerEvents=1;" parent="nRRo2VptIY6yAc5l_RTH-200" vertex="1">
          <mxGeometry width="60" height="40" as="geometry">
            <mxRectangle width="60" height="40" as="alternateBounds" />
          </mxGeometry>
        </mxCell>
        <mxCell id="nRRo2VptIY6yAc5l_RTH-202" value="" style="shape=partialRectangle;html=1;whiteSpace=wrap;connectable=0;overflow=hidden;fillColor=none;top=0;left=0;bottom=0;right=0;pointerEvents=1;" parent="nRRo2VptIY6yAc5l_RTH-200" vertex="1">
          <mxGeometry x="60" width="60" height="40" as="geometry">
            <mxRectangle width="60" height="40" as="alternateBounds" />
          </mxGeometry>
        </mxCell>
        <mxCell id="nRRo2VptIY6yAc5l_RTH-203" value="" style="shape=partialRectangle;html=1;whiteSpace=wrap;connectable=0;overflow=hidden;fillColor=none;top=0;left=0;bottom=0;right=0;pointerEvents=1;" parent="nRRo2VptIY6yAc5l_RTH-200" vertex="1">
          <mxGeometry x="120" width="60" height="40" as="geometry">
            <mxRectangle width="60" height="40" as="alternateBounds" />
          </mxGeometry>
        </mxCell>
        <mxCell id="nRRo2VptIY6yAc5l_RTH-204" value="" style="shape=partialRectangle;html=1;whiteSpace=wrap;connectable=0;overflow=hidden;fillColor=none;top=0;left=0;bottom=0;right=0;pointerEvents=1;" parent="nRRo2VptIY6yAc5l_RTH-200" vertex="1">
          <mxGeometry x="180" width="60" height="40" as="geometry">
            <mxRectangle width="60" height="40" as="alternateBounds" />
          </mxGeometry>
        </mxCell>
        <mxCell id="nRRo2VptIY6yAc5l_RTH-205" value="" style="shape=partialRectangle;html=1;whiteSpace=wrap;connectable=0;overflow=hidden;fillColor=none;top=0;left=0;bottom=0;right=0;pointerEvents=1;" parent="nRRo2VptIY6yAc5l_RTH-200" vertex="1">
          <mxGeometry x="240" width="60" height="40" as="geometry">
            <mxRectangle width="60" height="40" as="alternateBounds" />
          </mxGeometry>
        </mxCell>
        <mxCell id="nRRo2VptIY6yAc5l_RTH-206" value="" style="shape=partialRectangle;html=1;whiteSpace=wrap;connectable=0;overflow=hidden;fillColor=none;top=0;left=0;bottom=0;right=0;pointerEvents=1;" parent="nRRo2VptIY6yAc5l_RTH-200" vertex="1">
          <mxGeometry x="300" width="60" height="40" as="geometry">
            <mxRectangle width="60" height="40" as="alternateBounds" />
          </mxGeometry>
        </mxCell>
        <mxCell id="nRRo2VptIY6yAc5l_RTH-207" value="" style="shape=partialRectangle;html=1;whiteSpace=wrap;connectable=0;overflow=hidden;fillColor=none;top=0;left=0;bottom=0;right=0;pointerEvents=1;" parent="nRRo2VptIY6yAc5l_RTH-200" vertex="1">
          <mxGeometry x="360" width="60" height="40" as="geometry">
            <mxRectangle width="60" height="40" as="alternateBounds" />
          </mxGeometry>
        </mxCell>
        <mxCell id="nRRo2VptIY6yAc5l_RTH-208" value="" style="shape=partialRectangle;html=1;whiteSpace=wrap;connectable=0;overflow=hidden;fillColor=none;top=0;left=0;bottom=0;right=0;pointerEvents=1;" parent="nRRo2VptIY6yAc5l_RTH-200" vertex="1">
          <mxGeometry x="420" width="60" height="40" as="geometry">
            <mxRectangle width="60" height="40" as="alternateBounds" />
          </mxGeometry>
        </mxCell>
        <mxCell id="nRRo2VptIY6yAc5l_RTH-209" value="" style="shape=partialRectangle;html=1;whiteSpace=wrap;connectable=0;overflow=hidden;fillColor=none;top=0;left=0;bottom=0;right=0;pointerEvents=1;" parent="nRRo2VptIY6yAc5l_RTH-200" vertex="1">
          <mxGeometry x="480" width="60" height="40" as="geometry">
            <mxRectangle width="60" height="40" as="alternateBounds" />
          </mxGeometry>
        </mxCell>
        <mxCell id="nRRo2VptIY6yAc5l_RTH-210" value="" style="shape=partialRectangle;html=1;whiteSpace=wrap;connectable=0;overflow=hidden;fillColor=none;top=0;left=0;bottom=0;right=0;pointerEvents=1;" parent="nRRo2VptIY6yAc5l_RTH-200" vertex="1">
          <mxGeometry x="540" width="60" height="40" as="geometry">
            <mxRectangle width="60" height="40" as="alternateBounds" />
          </mxGeometry>
        </mxCell>
        <mxCell id="nRRo2VptIY6yAc5l_RTH-211" value="" style="shape=partialRectangle;html=1;whiteSpace=wrap;connectable=0;overflow=hidden;fillColor=none;top=0;left=0;bottom=0;right=0;pointerEvents=1;" parent="nRRo2VptIY6yAc5l_RTH-200" vertex="1">
          <mxGeometry x="600" width="60" height="40" as="geometry">
            <mxRectangle width="60" height="40" as="alternateBounds" />
          </mxGeometry>
        </mxCell>
        <mxCell id="nRRo2VptIY6yAc5l_RTH-212" value="" style="shape=partialRectangle;html=1;whiteSpace=wrap;connectable=0;overflow=hidden;fillColor=none;top=0;left=0;bottom=0;right=0;pointerEvents=1;" parent="nRRo2VptIY6yAc5l_RTH-200" vertex="1">
          <mxGeometry x="660" width="60" height="40" as="geometry">
            <mxRectangle width="60" height="40" as="alternateBounds" />
          </mxGeometry>
        </mxCell>
        <mxCell id="nRRo2VptIY6yAc5l_RTH-213" value="" style="shape=partialRectangle;html=1;whiteSpace=wrap;connectable=0;overflow=hidden;fillColor=none;top=0;left=0;bottom=0;right=0;pointerEvents=1;" parent="nRRo2VptIY6yAc5l_RTH-200" vertex="1">
          <mxGeometry x="720" width="60" height="40" as="geometry">
            <mxRectangle width="60" height="40" as="alternateBounds" />
          </mxGeometry>
        </mxCell>
        <mxCell id="nRRo2VptIY6yAc5l_RTH-214" value="" style="shape=partialRectangle;html=1;whiteSpace=wrap;connectable=0;overflow=hidden;fillColor=none;top=0;left=0;bottom=0;right=0;pointerEvents=1;" parent="nRRo2VptIY6yAc5l_RTH-200" vertex="1">
          <mxGeometry x="780" width="60" height="40" as="geometry">
            <mxRectangle width="60" height="40" as="alternateBounds" />
          </mxGeometry>
        </mxCell>
        <mxCell id="nRRo2VptIY6yAc5l_RTH-215" value="" style="shape=partialRectangle;html=1;whiteSpace=wrap;connectable=0;overflow=hidden;fillColor=none;top=0;left=0;bottom=0;right=0;pointerEvents=1;" parent="nRRo2VptIY6yAc5l_RTH-200" vertex="1">
          <mxGeometry x="840" width="60" height="40" as="geometry">
            <mxRectangle width="60" height="40" as="alternateBounds" />
          </mxGeometry>
        </mxCell>
        <mxCell id="nRRo2VptIY6yAc5l_RTH-216" value="" style="shape=partialRectangle;html=1;whiteSpace=wrap;connectable=0;overflow=hidden;fillColor=none;top=0;left=0;bottom=0;right=0;pointerEvents=1;" parent="nRRo2VptIY6yAc5l_RTH-200" vertex="1">
          <mxGeometry x="900" width="60" height="40" as="geometry">
            <mxRectangle width="60" height="40" as="alternateBounds" />
          </mxGeometry>
        </mxCell>
        <mxCell id="nRRo2VptIY6yAc5l_RTH-217" value="" style="shape=partialRectangle;html=1;whiteSpace=wrap;connectable=0;overflow=hidden;fillColor=none;top=0;left=0;bottom=0;right=0;pointerEvents=1;" parent="nRRo2VptIY6yAc5l_RTH-200" vertex="1">
          <mxGeometry x="960" width="60" height="40" as="geometry">
            <mxRectangle width="60" height="40" as="alternateBounds" />
          </mxGeometry>
        </mxCell>
        <mxCell id="nRRo2VptIY6yAc5l_RTH-218" value="" style="shape=partialRectangle;collapsible=0;dropTarget=0;pointerEvents=0;fillColor=none;top=0;left=0;bottom=0;right=0;points=[[0,0.5],[1,0.5]];portConstraint=eastwest;" parent="nRRo2VptIY6yAc5l_RTH-91" vertex="1">
          <mxGeometry y="280" width="1020" height="40" as="geometry" />
        </mxCell>
        <mxCell id="nRRo2VptIY6yAc5l_RTH-219" value="Sunday" style="shape=partialRectangle;html=1;whiteSpace=wrap;connectable=0;overflow=hidden;fillColor=none;top=0;left=0;bottom=0;right=0;pointerEvents=1;" parent="nRRo2VptIY6yAc5l_RTH-218" vertex="1">
          <mxGeometry width="60" height="40" as="geometry">
            <mxRectangle width="60" height="40" as="alternateBounds" />
          </mxGeometry>
        </mxCell>
        <mxCell id="nRRo2VptIY6yAc5l_RTH-220" value="" style="shape=partialRectangle;html=1;whiteSpace=wrap;connectable=0;overflow=hidden;fillColor=none;top=0;left=0;bottom=0;right=0;pointerEvents=1;" parent="nRRo2VptIY6yAc5l_RTH-218" vertex="1">
          <mxGeometry x="60" width="60" height="40" as="geometry">
            <mxRectangle width="60" height="40" as="alternateBounds" />
          </mxGeometry>
        </mxCell>
        <mxCell id="nRRo2VptIY6yAc5l_RTH-221" value="" style="shape=partialRectangle;html=1;whiteSpace=wrap;connectable=0;overflow=hidden;fillColor=none;top=0;left=0;bottom=0;right=0;pointerEvents=1;" parent="nRRo2VptIY6yAc5l_RTH-218" vertex="1">
          <mxGeometry x="120" width="60" height="40" as="geometry">
            <mxRectangle width="60" height="40" as="alternateBounds" />
          </mxGeometry>
        </mxCell>
        <mxCell id="nRRo2VptIY6yAc5l_RTH-222" value="" style="shape=partialRectangle;html=1;whiteSpace=wrap;connectable=0;overflow=hidden;fillColor=none;top=0;left=0;bottom=0;right=0;pointerEvents=1;" parent="nRRo2VptIY6yAc5l_RTH-218" vertex="1">
          <mxGeometry x="180" width="60" height="40" as="geometry">
            <mxRectangle width="60" height="40" as="alternateBounds" />
          </mxGeometry>
        </mxCell>
        <mxCell id="nRRo2VptIY6yAc5l_RTH-223" value="" style="shape=partialRectangle;html=1;whiteSpace=wrap;connectable=0;overflow=hidden;fillColor=none;top=0;left=0;bottom=0;right=0;pointerEvents=1;" parent="nRRo2VptIY6yAc5l_RTH-218" vertex="1">
          <mxGeometry x="240" width="60" height="40" as="geometry">
            <mxRectangle width="60" height="40" as="alternateBounds" />
          </mxGeometry>
        </mxCell>
        <mxCell id="nRRo2VptIY6yAc5l_RTH-224" value="" style="shape=partialRectangle;html=1;whiteSpace=wrap;connectable=0;overflow=hidden;fillColor=none;top=0;left=0;bottom=0;right=0;pointerEvents=1;" parent="nRRo2VptIY6yAc5l_RTH-218" vertex="1">
          <mxGeometry x="300" width="60" height="40" as="geometry">
            <mxRectangle width="60" height="40" as="alternateBounds" />
          </mxGeometry>
        </mxCell>
        <mxCell id="nRRo2VptIY6yAc5l_RTH-225" value="" style="shape=partialRectangle;html=1;whiteSpace=wrap;connectable=0;overflow=hidden;fillColor=none;top=0;left=0;bottom=0;right=0;pointerEvents=1;" parent="nRRo2VptIY6yAc5l_RTH-218" vertex="1">
          <mxGeometry x="360" width="60" height="40" as="geometry">
            <mxRectangle width="60" height="40" as="alternateBounds" />
          </mxGeometry>
        </mxCell>
        <mxCell id="nRRo2VptIY6yAc5l_RTH-226" value="" style="shape=partialRectangle;html=1;whiteSpace=wrap;connectable=0;overflow=hidden;fillColor=none;top=0;left=0;bottom=0;right=0;pointerEvents=1;" parent="nRRo2VptIY6yAc5l_RTH-218" vertex="1">
          <mxGeometry x="420" width="60" height="40" as="geometry">
            <mxRectangle width="60" height="40" as="alternateBounds" />
          </mxGeometry>
        </mxCell>
        <mxCell id="nRRo2VptIY6yAc5l_RTH-227" value="" style="shape=partialRectangle;html=1;whiteSpace=wrap;connectable=0;overflow=hidden;fillColor=none;top=0;left=0;bottom=0;right=0;pointerEvents=1;" parent="nRRo2VptIY6yAc5l_RTH-218" vertex="1">
          <mxGeometry x="480" width="60" height="40" as="geometry">
            <mxRectangle width="60" height="40" as="alternateBounds" />
          </mxGeometry>
        </mxCell>
        <mxCell id="nRRo2VptIY6yAc5l_RTH-228" value="" style="shape=partialRectangle;html=1;whiteSpace=wrap;connectable=0;overflow=hidden;fillColor=none;top=0;left=0;bottom=0;right=0;pointerEvents=1;" parent="nRRo2VptIY6yAc5l_RTH-218" vertex="1">
          <mxGeometry x="540" width="60" height="40" as="geometry">
            <mxRectangle width="60" height="40" as="alternateBounds" />
          </mxGeometry>
        </mxCell>
        <mxCell id="nRRo2VptIY6yAc5l_RTH-229" value="" style="shape=partialRectangle;html=1;whiteSpace=wrap;connectable=0;overflow=hidden;fillColor=none;top=0;left=0;bottom=0;right=0;pointerEvents=1;" parent="nRRo2VptIY6yAc5l_RTH-218" vertex="1">
          <mxGeometry x="600" width="60" height="40" as="geometry">
            <mxRectangle width="60" height="40" as="alternateBounds" />
          </mxGeometry>
        </mxCell>
        <mxCell id="nRRo2VptIY6yAc5l_RTH-230" value="" style="shape=partialRectangle;html=1;whiteSpace=wrap;connectable=0;overflow=hidden;fillColor=none;top=0;left=0;bottom=0;right=0;pointerEvents=1;" parent="nRRo2VptIY6yAc5l_RTH-218" vertex="1">
          <mxGeometry x="660" width="60" height="40" as="geometry">
            <mxRectangle width="60" height="40" as="alternateBounds" />
          </mxGeometry>
        </mxCell>
        <mxCell id="nRRo2VptIY6yAc5l_RTH-231" value="" style="shape=partialRectangle;html=1;whiteSpace=wrap;connectable=0;overflow=hidden;fillColor=none;top=0;left=0;bottom=0;right=0;pointerEvents=1;" parent="nRRo2VptIY6yAc5l_RTH-218" vertex="1">
          <mxGeometry x="720" width="60" height="40" as="geometry">
            <mxRectangle width="60" height="40" as="alternateBounds" />
          </mxGeometry>
        </mxCell>
        <mxCell id="nRRo2VptIY6yAc5l_RTH-232" value="" style="shape=partialRectangle;html=1;whiteSpace=wrap;connectable=0;overflow=hidden;fillColor=none;top=0;left=0;bottom=0;right=0;pointerEvents=1;" parent="nRRo2VptIY6yAc5l_RTH-218" vertex="1">
          <mxGeometry x="780" width="60" height="40" as="geometry">
            <mxRectangle width="60" height="40" as="alternateBounds" />
          </mxGeometry>
        </mxCell>
        <mxCell id="nRRo2VptIY6yAc5l_RTH-233" value="" style="shape=partialRectangle;html=1;whiteSpace=wrap;connectable=0;overflow=hidden;fillColor=none;top=0;left=0;bottom=0;right=0;pointerEvents=1;" parent="nRRo2VptIY6yAc5l_RTH-218" vertex="1">
          <mxGeometry x="840" width="60" height="40" as="geometry">
            <mxRectangle width="60" height="40" as="alternateBounds" />
          </mxGeometry>
        </mxCell>
        <mxCell id="nRRo2VptIY6yAc5l_RTH-234" value="" style="shape=partialRectangle;html=1;whiteSpace=wrap;connectable=0;overflow=hidden;fillColor=none;top=0;left=0;bottom=0;right=0;pointerEvents=1;" parent="nRRo2VptIY6yAc5l_RTH-218" vertex="1">
          <mxGeometry x="900" width="60" height="40" as="geometry">
            <mxRectangle width="60" height="40" as="alternateBounds" />
          </mxGeometry>
        </mxCell>
        <mxCell id="nRRo2VptIY6yAc5l_RTH-235" value="" style="shape=partialRectangle;html=1;whiteSpace=wrap;connectable=0;overflow=hidden;fillColor=none;top=0;left=0;bottom=0;right=0;pointerEvents=1;" parent="nRRo2VptIY6yAc5l_RTH-218" vertex="1">
          <mxGeometry x="960" width="60" height="40" as="geometry">
            <mxRectangle width="60" height="40" as="alternateBounds" />
          </mxGeometry>
        </mxCell>
        <mxCell id="nRRo2VptIY6yAc5l_RTH-236" value="" style="endArrow=none;html=1;exitX=0;exitY=0.002;exitDx=0;exitDy=0;exitPerimeter=0;entryX=0.059;entryY=0.997;entryDx=0;entryDy=0;entryPerimeter=0;" parent="nRRo2VptIY6yAc5l_RTH-91" source="nRRo2VptIY6yAc5l_RTH-92" target="nRRo2VptIY6yAc5l_RTH-92" edge="1">
          <mxGeometry width="50" height="50" relative="1" as="geometry">
            <mxPoint x="110" y="110" as="sourcePoint" />
            <mxPoint x="160" y="60" as="targetPoint" />
          </mxGeometry>
        </mxCell>
        <mxCell id="nRRo2VptIY6yAc5l_RTH-237" value="form" style="text;html=1;strokeColor=none;fillColor=none;align=center;verticalAlign=middle;whiteSpace=wrap;rounded=0;" parent="1" vertex="1">
          <mxGeometry x="-890" y="750" width="30" height="15" as="geometry" />
        </mxCell>
        <mxCell id="nRRo2VptIY6yAc5l_RTH-238" value="day" style="text;html=1;strokeColor=none;fillColor=none;align=center;verticalAlign=middle;whiteSpace=wrap;rounded=0;" parent="1" vertex="1">
          <mxGeometry x="-920" y="770" width="30" height="20" as="geometry" />
        </mxCell>
        <mxCell id="nRRo2VptIY6yAc5l_RTH-239" value="Monday" style="text;html=1;strokeColor=none;fillColor=none;align=center;verticalAlign=middle;whiteSpace=wrap;rounded=0;" parent="1" vertex="1">
          <mxGeometry x="-910" y="800" width="40" height="20" as="geometry" />
        </mxCell>
        <mxCell id="nRRo2VptIY6yAc5l_RTH-240" value="Tuesday" style="text;html=1;strokeColor=none;fillColor=none;align=center;verticalAlign=middle;whiteSpace=wrap;rounded=0;" parent="1" vertex="1">
          <mxGeometry x="-910" y="840" width="40" height="20" as="geometry" />
        </mxCell>
        <mxCell id="nRRo2VptIY6yAc5l_RTH-241" value="" style="whiteSpace=wrap;html=1;rounded=0;" parent="1" vertex="1">
          <mxGeometry x="305" y="975" width="535" height="330" as="geometry" />
        </mxCell>
        <mxCell id="nRRo2VptIY6yAc5l_RTH-243" value="" style="shape=table;startSize=0;container=1;collapsible=0;childLayout=tableLayout;" parent="1" vertex="1">
          <mxGeometry x="310" y="1100" width="420" height="200" as="geometry" />
        </mxCell>
        <mxCell id="nRRo2VptIY6yAc5l_RTH-244" value="" style="shape=partialRectangle;collapsible=0;dropTarget=0;pointerEvents=0;fillColor=none;top=0;left=0;bottom=0;right=0;points=[[0,0.5],[1,0.5]];portConstraint=eastwest;" parent="nRRo2VptIY6yAc5l_RTH-243" vertex="1">
          <mxGeometry width="420" height="40" as="geometry" />
        </mxCell>
        <mxCell id="nRRo2VptIY6yAc5l_RTH-245" value="" style="shape=partialRectangle;html=1;whiteSpace=wrap;connectable=0;overflow=hidden;fillColor=none;top=0;left=0;bottom=0;right=0;pointerEvents=1;" parent="nRRo2VptIY6yAc5l_RTH-244" vertex="1">
          <mxGeometry width="60" height="40" as="geometry">
            <mxRectangle width="60" height="40" as="alternateBounds" />
          </mxGeometry>
        </mxCell>
        <mxCell id="nRRo2VptIY6yAc5l_RTH-246" value="" style="shape=partialRectangle;html=1;whiteSpace=wrap;connectable=0;overflow=hidden;fillColor=none;top=0;left=0;bottom=0;right=0;pointerEvents=1;" parent="nRRo2VptIY6yAc5l_RTH-244" vertex="1">
          <mxGeometry x="60" width="60" height="40" as="geometry">
            <mxRectangle width="60" height="40" as="alternateBounds" />
          </mxGeometry>
        </mxCell>
        <mxCell id="nRRo2VptIY6yAc5l_RTH-247" value="" style="shape=partialRectangle;html=1;whiteSpace=wrap;connectable=0;overflow=hidden;fillColor=none;top=0;left=0;bottom=0;right=0;pointerEvents=1;" parent="nRRo2VptIY6yAc5l_RTH-244" vertex="1">
          <mxGeometry x="120" width="60" height="40" as="geometry">
            <mxRectangle width="60" height="40" as="alternateBounds" />
          </mxGeometry>
        </mxCell>
        <mxCell id="nRRo2VptIY6yAc5l_RTH-248" value="" style="shape=partialRectangle;html=1;whiteSpace=wrap;connectable=0;overflow=hidden;fillColor=none;top=0;left=0;bottom=0;right=0;pointerEvents=1;" parent="nRRo2VptIY6yAc5l_RTH-244" vertex="1">
          <mxGeometry x="180" width="60" height="40" as="geometry">
            <mxRectangle width="60" height="40" as="alternateBounds" />
          </mxGeometry>
        </mxCell>
        <mxCell id="nRRo2VptIY6yAc5l_RTH-249" value="" style="shape=partialRectangle;html=1;whiteSpace=wrap;connectable=0;overflow=hidden;fillColor=none;top=0;left=0;bottom=0;right=0;pointerEvents=1;" parent="nRRo2VptIY6yAc5l_RTH-244" vertex="1">
          <mxGeometry x="240" width="60" height="40" as="geometry">
            <mxRectangle width="60" height="40" as="alternateBounds" />
          </mxGeometry>
        </mxCell>
        <mxCell id="nRRo2VptIY6yAc5l_RTH-250" value="" style="shape=partialRectangle;html=1;whiteSpace=wrap;connectable=0;overflow=hidden;fillColor=none;top=0;left=0;bottom=0;right=0;pointerEvents=1;" parent="nRRo2VptIY6yAc5l_RTH-244" vertex="1">
          <mxGeometry x="300" width="60" height="40" as="geometry">
            <mxRectangle width="60" height="40" as="alternateBounds" />
          </mxGeometry>
        </mxCell>
        <mxCell id="nRRo2VptIY6yAc5l_RTH-251" value="" style="shape=partialRectangle;html=1;whiteSpace=wrap;connectable=0;overflow=hidden;fillColor=none;top=0;left=0;bottom=0;right=0;pointerEvents=1;" parent="nRRo2VptIY6yAc5l_RTH-244" vertex="1">
          <mxGeometry x="360" width="60" height="40" as="geometry">
            <mxRectangle width="60" height="40" as="alternateBounds" />
          </mxGeometry>
        </mxCell>
        <mxCell id="nRRo2VptIY6yAc5l_RTH-252" value="" style="shape=partialRectangle;collapsible=0;dropTarget=0;pointerEvents=0;fillColor=none;top=0;left=0;bottom=0;right=0;points=[[0,0.5],[1,0.5]];portConstraint=eastwest;" parent="nRRo2VptIY6yAc5l_RTH-243" vertex="1">
          <mxGeometry y="40" width="420" height="40" as="geometry" />
        </mxCell>
        <mxCell id="nRRo2VptIY6yAc5l_RTH-253" value="" style="shape=partialRectangle;html=1;whiteSpace=wrap;connectable=0;overflow=hidden;fillColor=none;top=0;left=0;bottom=0;right=0;pointerEvents=1;" parent="nRRo2VptIY6yAc5l_RTH-252" vertex="1">
          <mxGeometry width="60" height="40" as="geometry">
            <mxRectangle width="60" height="40" as="alternateBounds" />
          </mxGeometry>
        </mxCell>
        <mxCell id="nRRo2VptIY6yAc5l_RTH-254" value="" style="shape=partialRectangle;html=1;whiteSpace=wrap;connectable=0;overflow=hidden;fillColor=none;top=0;left=0;bottom=0;right=0;pointerEvents=1;" parent="nRRo2VptIY6yAc5l_RTH-252" vertex="1">
          <mxGeometry x="60" width="60" height="40" as="geometry">
            <mxRectangle width="60" height="40" as="alternateBounds" />
          </mxGeometry>
        </mxCell>
        <mxCell id="nRRo2VptIY6yAc5l_RTH-255" value="" style="shape=partialRectangle;html=1;whiteSpace=wrap;connectable=0;overflow=hidden;fillColor=none;top=0;left=0;bottom=0;right=0;pointerEvents=1;" parent="nRRo2VptIY6yAc5l_RTH-252" vertex="1">
          <mxGeometry x="120" width="60" height="40" as="geometry">
            <mxRectangle width="60" height="40" as="alternateBounds" />
          </mxGeometry>
        </mxCell>
        <mxCell id="nRRo2VptIY6yAc5l_RTH-256" value="" style="shape=partialRectangle;html=1;whiteSpace=wrap;connectable=0;overflow=hidden;fillColor=none;top=0;left=0;bottom=0;right=0;pointerEvents=1;" parent="nRRo2VptIY6yAc5l_RTH-252" vertex="1">
          <mxGeometry x="180" width="60" height="40" as="geometry">
            <mxRectangle width="60" height="40" as="alternateBounds" />
          </mxGeometry>
        </mxCell>
        <mxCell id="nRRo2VptIY6yAc5l_RTH-257" value="" style="shape=partialRectangle;html=1;whiteSpace=wrap;connectable=0;overflow=hidden;fillColor=none;top=0;left=0;bottom=0;right=0;pointerEvents=1;" parent="nRRo2VptIY6yAc5l_RTH-252" vertex="1">
          <mxGeometry x="240" width="60" height="40" as="geometry">
            <mxRectangle width="60" height="40" as="alternateBounds" />
          </mxGeometry>
        </mxCell>
        <mxCell id="nRRo2VptIY6yAc5l_RTH-258" value="" style="shape=partialRectangle;html=1;whiteSpace=wrap;connectable=0;overflow=hidden;fillColor=none;top=0;left=0;bottom=0;right=0;pointerEvents=1;" parent="nRRo2VptIY6yAc5l_RTH-252" vertex="1">
          <mxGeometry x="300" width="60" height="40" as="geometry">
            <mxRectangle width="60" height="40" as="alternateBounds" />
          </mxGeometry>
        </mxCell>
        <mxCell id="nRRo2VptIY6yAc5l_RTH-259" value="" style="shape=partialRectangle;html=1;whiteSpace=wrap;connectable=0;overflow=hidden;fillColor=none;top=0;left=0;bottom=0;right=0;pointerEvents=1;" parent="nRRo2VptIY6yAc5l_RTH-252" vertex="1">
          <mxGeometry x="360" width="60" height="40" as="geometry">
            <mxRectangle width="60" height="40" as="alternateBounds" />
          </mxGeometry>
        </mxCell>
        <mxCell id="nRRo2VptIY6yAc5l_RTH-260" value="" style="shape=partialRectangle;collapsible=0;dropTarget=0;pointerEvents=0;fillColor=none;top=0;left=0;bottom=0;right=0;points=[[0,0.5],[1,0.5]];portConstraint=eastwest;" parent="nRRo2VptIY6yAc5l_RTH-243" vertex="1">
          <mxGeometry y="80" width="420" height="40" as="geometry" />
        </mxCell>
        <mxCell id="nRRo2VptIY6yAc5l_RTH-261" value="" style="shape=partialRectangle;html=1;whiteSpace=wrap;connectable=0;overflow=hidden;fillColor=none;top=0;left=0;bottom=0;right=0;pointerEvents=1;" parent="nRRo2VptIY6yAc5l_RTH-260" vertex="1">
          <mxGeometry width="60" height="40" as="geometry">
            <mxRectangle width="60" height="40" as="alternateBounds" />
          </mxGeometry>
        </mxCell>
        <mxCell id="nRRo2VptIY6yAc5l_RTH-262" value="" style="shape=partialRectangle;html=1;whiteSpace=wrap;connectable=0;overflow=hidden;fillColor=none;top=0;left=0;bottom=0;right=0;pointerEvents=1;" parent="nRRo2VptIY6yAc5l_RTH-260" vertex="1">
          <mxGeometry x="60" width="60" height="40" as="geometry">
            <mxRectangle width="60" height="40" as="alternateBounds" />
          </mxGeometry>
        </mxCell>
        <mxCell id="nRRo2VptIY6yAc5l_RTH-263" value="" style="shape=partialRectangle;html=1;whiteSpace=wrap;connectable=0;overflow=hidden;fillColor=none;top=0;left=0;bottom=0;right=0;pointerEvents=1;" parent="nRRo2VptIY6yAc5l_RTH-260" vertex="1">
          <mxGeometry x="120" width="60" height="40" as="geometry">
            <mxRectangle width="60" height="40" as="alternateBounds" />
          </mxGeometry>
        </mxCell>
        <mxCell id="nRRo2VptIY6yAc5l_RTH-264" value="" style="shape=partialRectangle;html=1;whiteSpace=wrap;connectable=0;overflow=hidden;fillColor=none;top=0;left=0;bottom=0;right=0;pointerEvents=1;" parent="nRRo2VptIY6yAc5l_RTH-260" vertex="1">
          <mxGeometry x="180" width="60" height="40" as="geometry">
            <mxRectangle width="60" height="40" as="alternateBounds" />
          </mxGeometry>
        </mxCell>
        <mxCell id="nRRo2VptIY6yAc5l_RTH-265" value="" style="shape=partialRectangle;html=1;whiteSpace=wrap;connectable=0;overflow=hidden;fillColor=none;top=0;left=0;bottom=0;right=0;pointerEvents=1;" parent="nRRo2VptIY6yAc5l_RTH-260" vertex="1">
          <mxGeometry x="240" width="60" height="40" as="geometry">
            <mxRectangle width="60" height="40" as="alternateBounds" />
          </mxGeometry>
        </mxCell>
        <mxCell id="nRRo2VptIY6yAc5l_RTH-266" value="" style="shape=partialRectangle;html=1;whiteSpace=wrap;connectable=0;overflow=hidden;fillColor=none;top=0;left=0;bottom=0;right=0;pointerEvents=1;" parent="nRRo2VptIY6yAc5l_RTH-260" vertex="1">
          <mxGeometry x="300" width="60" height="40" as="geometry">
            <mxRectangle width="60" height="40" as="alternateBounds" />
          </mxGeometry>
        </mxCell>
        <mxCell id="nRRo2VptIY6yAc5l_RTH-267" value="" style="shape=partialRectangle;html=1;whiteSpace=wrap;connectable=0;overflow=hidden;fillColor=none;top=0;left=0;bottom=0;right=0;pointerEvents=1;" parent="nRRo2VptIY6yAc5l_RTH-260" vertex="1">
          <mxGeometry x="360" width="60" height="40" as="geometry">
            <mxRectangle width="60" height="40" as="alternateBounds" />
          </mxGeometry>
        </mxCell>
        <mxCell id="nRRo2VptIY6yAc5l_RTH-268" value="" style="shape=partialRectangle;collapsible=0;dropTarget=0;pointerEvents=0;fillColor=none;top=0;left=0;bottom=0;right=0;points=[[0,0.5],[1,0.5]];portConstraint=eastwest;" parent="nRRo2VptIY6yAc5l_RTH-243" vertex="1">
          <mxGeometry y="120" width="420" height="40" as="geometry" />
        </mxCell>
        <mxCell id="nRRo2VptIY6yAc5l_RTH-269" value="" style="shape=partialRectangle;html=1;whiteSpace=wrap;connectable=0;overflow=hidden;fillColor=none;top=0;left=0;bottom=0;right=0;pointerEvents=1;" parent="nRRo2VptIY6yAc5l_RTH-268" vertex="1">
          <mxGeometry width="60" height="40" as="geometry">
            <mxRectangle width="60" height="40" as="alternateBounds" />
          </mxGeometry>
        </mxCell>
        <mxCell id="nRRo2VptIY6yAc5l_RTH-270" value="" style="shape=partialRectangle;html=1;whiteSpace=wrap;connectable=0;overflow=hidden;fillColor=none;top=0;left=0;bottom=0;right=0;pointerEvents=1;" parent="nRRo2VptIY6yAc5l_RTH-268" vertex="1">
          <mxGeometry x="60" width="60" height="40" as="geometry">
            <mxRectangle width="60" height="40" as="alternateBounds" />
          </mxGeometry>
        </mxCell>
        <mxCell id="nRRo2VptIY6yAc5l_RTH-271" value="" style="shape=partialRectangle;html=1;whiteSpace=wrap;connectable=0;overflow=hidden;fillColor=none;top=0;left=0;bottom=0;right=0;pointerEvents=1;" parent="nRRo2VptIY6yAc5l_RTH-268" vertex="1">
          <mxGeometry x="120" width="60" height="40" as="geometry">
            <mxRectangle width="60" height="40" as="alternateBounds" />
          </mxGeometry>
        </mxCell>
        <mxCell id="nRRo2VptIY6yAc5l_RTH-272" value="" style="shape=partialRectangle;html=1;whiteSpace=wrap;connectable=0;overflow=hidden;fillColor=none;top=0;left=0;bottom=0;right=0;pointerEvents=1;" parent="nRRo2VptIY6yAc5l_RTH-268" vertex="1">
          <mxGeometry x="180" width="60" height="40" as="geometry">
            <mxRectangle width="60" height="40" as="alternateBounds" />
          </mxGeometry>
        </mxCell>
        <mxCell id="nRRo2VptIY6yAc5l_RTH-273" value="" style="shape=partialRectangle;html=1;whiteSpace=wrap;connectable=0;overflow=hidden;fillColor=none;top=0;left=0;bottom=0;right=0;pointerEvents=1;" parent="nRRo2VptIY6yAc5l_RTH-268" vertex="1">
          <mxGeometry x="240" width="60" height="40" as="geometry">
            <mxRectangle width="60" height="40" as="alternateBounds" />
          </mxGeometry>
        </mxCell>
        <mxCell id="nRRo2VptIY6yAc5l_RTH-274" value="" style="shape=partialRectangle;html=1;whiteSpace=wrap;connectable=0;overflow=hidden;fillColor=none;top=0;left=0;bottom=0;right=0;pointerEvents=1;" parent="nRRo2VptIY6yAc5l_RTH-268" vertex="1">
          <mxGeometry x="300" width="60" height="40" as="geometry">
            <mxRectangle width="60" height="40" as="alternateBounds" />
          </mxGeometry>
        </mxCell>
        <mxCell id="nRRo2VptIY6yAc5l_RTH-275" value="" style="shape=partialRectangle;html=1;whiteSpace=wrap;connectable=0;overflow=hidden;fillColor=none;top=0;left=0;bottom=0;right=0;pointerEvents=1;" parent="nRRo2VptIY6yAc5l_RTH-268" vertex="1">
          <mxGeometry x="360" width="60" height="40" as="geometry">
            <mxRectangle width="60" height="40" as="alternateBounds" />
          </mxGeometry>
        </mxCell>
        <mxCell id="nRRo2VptIY6yAc5l_RTH-276" value="" style="shape=partialRectangle;collapsible=0;dropTarget=0;pointerEvents=0;fillColor=none;top=0;left=0;bottom=0;right=0;points=[[0,0.5],[1,0.5]];portConstraint=eastwest;" parent="nRRo2VptIY6yAc5l_RTH-243" vertex="1">
          <mxGeometry y="160" width="420" height="40" as="geometry" />
        </mxCell>
        <mxCell id="nRRo2VptIY6yAc5l_RTH-277" value="" style="shape=partialRectangle;html=1;whiteSpace=wrap;connectable=0;overflow=hidden;fillColor=none;top=0;left=0;bottom=0;right=0;pointerEvents=1;" parent="nRRo2VptIY6yAc5l_RTH-276" vertex="1">
          <mxGeometry width="60" height="40" as="geometry">
            <mxRectangle width="60" height="40" as="alternateBounds" />
          </mxGeometry>
        </mxCell>
        <mxCell id="nRRo2VptIY6yAc5l_RTH-278" value="" style="shape=partialRectangle;html=1;whiteSpace=wrap;connectable=0;overflow=hidden;fillColor=none;top=0;left=0;bottom=0;right=0;pointerEvents=1;" parent="nRRo2VptIY6yAc5l_RTH-276" vertex="1">
          <mxGeometry x="60" width="60" height="40" as="geometry">
            <mxRectangle width="60" height="40" as="alternateBounds" />
          </mxGeometry>
        </mxCell>
        <mxCell id="nRRo2VptIY6yAc5l_RTH-279" value="" style="shape=partialRectangle;html=1;whiteSpace=wrap;connectable=0;overflow=hidden;fillColor=none;top=0;left=0;bottom=0;right=0;pointerEvents=1;" parent="nRRo2VptIY6yAc5l_RTH-276" vertex="1">
          <mxGeometry x="120" width="60" height="40" as="geometry">
            <mxRectangle width="60" height="40" as="alternateBounds" />
          </mxGeometry>
        </mxCell>
        <mxCell id="nRRo2VptIY6yAc5l_RTH-280" value="" style="shape=partialRectangle;html=1;whiteSpace=wrap;connectable=0;overflow=hidden;fillColor=none;top=0;left=0;bottom=0;right=0;pointerEvents=1;" parent="nRRo2VptIY6yAc5l_RTH-276" vertex="1">
          <mxGeometry x="180" width="60" height="40" as="geometry">
            <mxRectangle width="60" height="40" as="alternateBounds" />
          </mxGeometry>
        </mxCell>
        <mxCell id="nRRo2VptIY6yAc5l_RTH-281" value="" style="shape=partialRectangle;html=1;whiteSpace=wrap;connectable=0;overflow=hidden;fillColor=none;top=0;left=0;bottom=0;right=0;pointerEvents=1;" parent="nRRo2VptIY6yAc5l_RTH-276" vertex="1">
          <mxGeometry x="240" width="60" height="40" as="geometry">
            <mxRectangle width="60" height="40" as="alternateBounds" />
          </mxGeometry>
        </mxCell>
        <mxCell id="nRRo2VptIY6yAc5l_RTH-282" value="" style="shape=partialRectangle;html=1;whiteSpace=wrap;connectable=0;overflow=hidden;fillColor=none;top=0;left=0;bottom=0;right=0;pointerEvents=1;" parent="nRRo2VptIY6yAc5l_RTH-276" vertex="1">
          <mxGeometry x="300" width="60" height="40" as="geometry">
            <mxRectangle width="60" height="40" as="alternateBounds" />
          </mxGeometry>
        </mxCell>
        <mxCell id="nRRo2VptIY6yAc5l_RTH-283" value="" style="shape=partialRectangle;html=1;whiteSpace=wrap;connectable=0;overflow=hidden;fillColor=none;top=0;left=0;bottom=0;right=0;pointerEvents=1;" parent="nRRo2VptIY6yAc5l_RTH-276" vertex="1">
          <mxGeometry x="360" width="60" height="40" as="geometry">
            <mxRectangle width="60" height="40" as="alternateBounds" />
          </mxGeometry>
        </mxCell>
        <mxCell id="nRRo2VptIY6yAc5l_RTH-284" value="" style="shape=table;startSize=0;container=1;collapsible=0;childLayout=tableLayout;" parent="1" vertex="1">
          <mxGeometry x="337.5" y="1010" width="360" height="60" as="geometry" />
        </mxCell>
        <mxCell id="nRRo2VptIY6yAc5l_RTH-285" value="" style="shape=partialRectangle;collapsible=0;dropTarget=0;pointerEvents=0;fillColor=none;top=0;left=0;bottom=0;right=0;points=[[0,0.5],[1,0.5]];portConstraint=eastwest;" parent="nRRo2VptIY6yAc5l_RTH-284" vertex="1">
          <mxGeometry width="360" height="30" as="geometry" />
        </mxCell>
        <mxCell id="nRRo2VptIY6yAc5l_RTH-286" value="&lt;font style=&quot;font-size: 11px&quot;&gt;January&lt;/font&gt;" style="shape=partialRectangle;html=1;whiteSpace=wrap;connectable=0;overflow=hidden;fillColor=none;top=0;left=0;bottom=0;right=0;pointerEvents=1;" parent="nRRo2VptIY6yAc5l_RTH-285" vertex="1">
          <mxGeometry width="60" height="30" as="geometry">
            <mxRectangle width="60" height="30" as="alternateBounds" />
          </mxGeometry>
        </mxCell>
        <mxCell id="nRRo2VptIY6yAc5l_RTH-287" value="February" style="shape=partialRectangle;html=1;whiteSpace=wrap;connectable=0;overflow=hidden;fillColor=none;top=0;left=0;bottom=0;right=0;pointerEvents=1;" parent="nRRo2VptIY6yAc5l_RTH-285" vertex="1">
          <mxGeometry x="60" width="60" height="30" as="geometry">
            <mxRectangle width="60" height="30" as="alternateBounds" />
          </mxGeometry>
        </mxCell>
        <mxCell id="nRRo2VptIY6yAc5l_RTH-288" value="March" style="shape=partialRectangle;html=1;whiteSpace=wrap;connectable=0;overflow=hidden;fillColor=none;top=0;left=0;bottom=0;right=0;pointerEvents=1;" parent="nRRo2VptIY6yAc5l_RTH-285" vertex="1">
          <mxGeometry x="120" width="60" height="30" as="geometry">
            <mxRectangle width="60" height="30" as="alternateBounds" />
          </mxGeometry>
        </mxCell>
        <mxCell id="nRRo2VptIY6yAc5l_RTH-289" value="April" style="shape=partialRectangle;html=1;whiteSpace=wrap;connectable=0;overflow=hidden;fillColor=none;top=0;left=0;bottom=0;right=0;pointerEvents=1;" parent="nRRo2VptIY6yAc5l_RTH-285" vertex="1">
          <mxGeometry x="180" width="60" height="30" as="geometry">
            <mxRectangle width="60" height="30" as="alternateBounds" />
          </mxGeometry>
        </mxCell>
        <mxCell id="nRRo2VptIY6yAc5l_RTH-290" value="May" style="shape=partialRectangle;html=1;whiteSpace=wrap;connectable=0;overflow=hidden;fillColor=none;top=0;left=0;bottom=0;right=0;pointerEvents=1;" parent="nRRo2VptIY6yAc5l_RTH-285" vertex="1">
          <mxGeometry x="240" width="60" height="30" as="geometry">
            <mxRectangle width="60" height="30" as="alternateBounds" />
          </mxGeometry>
        </mxCell>
        <mxCell id="nRRo2VptIY6yAc5l_RTH-291" value="June" style="shape=partialRectangle;html=1;whiteSpace=wrap;connectable=0;overflow=hidden;fillColor=none;top=0;left=0;bottom=0;right=0;pointerEvents=1;" parent="nRRo2VptIY6yAc5l_RTH-285" vertex="1">
          <mxGeometry x="300" width="60" height="30" as="geometry">
            <mxRectangle width="60" height="30" as="alternateBounds" />
          </mxGeometry>
        </mxCell>
        <mxCell id="nRRo2VptIY6yAc5l_RTH-292" value="" style="shape=partialRectangle;collapsible=0;dropTarget=0;pointerEvents=0;fillColor=none;top=0;left=0;bottom=0;right=0;points=[[0,0.5],[1,0.5]];portConstraint=eastwest;" parent="nRRo2VptIY6yAc5l_RTH-284" vertex="1">
          <mxGeometry y="30" width="360" height="30" as="geometry" />
        </mxCell>
        <mxCell id="nRRo2VptIY6yAc5l_RTH-293" value="July" style="shape=partialRectangle;html=1;whiteSpace=wrap;connectable=0;overflow=hidden;fillColor=none;top=0;left=0;bottom=0;right=0;pointerEvents=1;" parent="nRRo2VptIY6yAc5l_RTH-292" vertex="1">
          <mxGeometry width="60" height="30" as="geometry">
            <mxRectangle width="60" height="30" as="alternateBounds" />
          </mxGeometry>
        </mxCell>
        <mxCell id="nRRo2VptIY6yAc5l_RTH-294" value="August" style="shape=partialRectangle;html=1;whiteSpace=wrap;connectable=0;overflow=hidden;fillColor=none;top=0;left=0;bottom=0;right=0;pointerEvents=1;" parent="nRRo2VptIY6yAc5l_RTH-292" vertex="1">
          <mxGeometry x="60" width="60" height="30" as="geometry">
            <mxRectangle width="60" height="30" as="alternateBounds" />
          </mxGeometry>
        </mxCell>
        <mxCell id="nRRo2VptIY6yAc5l_RTH-295" value="September" style="shape=partialRectangle;html=1;whiteSpace=wrap;connectable=0;overflow=hidden;fillColor=none;top=0;left=0;bottom=0;right=0;pointerEvents=1;" parent="nRRo2VptIY6yAc5l_RTH-292" vertex="1">
          <mxGeometry x="120" width="60" height="30" as="geometry">
            <mxRectangle width="60" height="30" as="alternateBounds" />
          </mxGeometry>
        </mxCell>
        <mxCell id="nRRo2VptIY6yAc5l_RTH-296" value="October" style="shape=partialRectangle;html=1;whiteSpace=wrap;connectable=0;overflow=hidden;fillColor=none;top=0;left=0;bottom=0;right=0;pointerEvents=1;" parent="nRRo2VptIY6yAc5l_RTH-292" vertex="1">
          <mxGeometry x="180" width="60" height="30" as="geometry">
            <mxRectangle width="60" height="30" as="alternateBounds" />
          </mxGeometry>
        </mxCell>
        <mxCell id="nRRo2VptIY6yAc5l_RTH-297" value="November" style="shape=partialRectangle;html=1;whiteSpace=wrap;connectable=0;overflow=hidden;fillColor=none;top=0;left=0;bottom=0;right=0;pointerEvents=1;" parent="nRRo2VptIY6yAc5l_RTH-292" vertex="1">
          <mxGeometry x="240" width="60" height="30" as="geometry">
            <mxRectangle width="60" height="30" as="alternateBounds" />
          </mxGeometry>
        </mxCell>
        <mxCell id="nRRo2VptIY6yAc5l_RTH-298" value="December" style="shape=partialRectangle;html=1;whiteSpace=wrap;connectable=0;overflow=hidden;fillColor=none;top=0;left=0;bottom=0;right=0;pointerEvents=1;" parent="nRRo2VptIY6yAc5l_RTH-292" vertex="1">
          <mxGeometry x="300" width="60" height="30" as="geometry">
            <mxRectangle width="60" height="30" as="alternateBounds" />
          </mxGeometry>
        </mxCell>
        <mxCell id="ObmRaE6gTi8aWYttkkPQ-6" value="" style="rounded=0;whiteSpace=wrap;html=1;" vertex="1" parent="1">
          <mxGeometry x="660" y="1506" width="500" height="804" as="geometry" />
        </mxCell>
        <mxCell id="ObmRaE6gTi8aWYttkkPQ-7" value="School newspaper" style="rounded=0;whiteSpace=wrap;html=1;" vertex="1" parent="1">
          <mxGeometry x="660" y="1506" width="500" height="60" as="geometry" />
        </mxCell>
        <mxCell id="ObmRaE6gTi8aWYttkkPQ-9" value="dd/mm/yyyy" style="text;html=1;strokeColor=none;fillColor=none;align=center;verticalAlign=middle;whiteSpace=wrap;rounded=0;" vertex="1" parent="1">
          <mxGeometry x="865" y="1590" width="60" height="30" as="geometry" />
        </mxCell>
        <mxCell id="ObmRaE6gTi8aWYttkkPQ-11" value="dd/mm/yyyy" style="text;html=1;strokeColor=none;fillColor=none;align=center;verticalAlign=middle;whiteSpace=wrap;rounded=0;" vertex="1" parent="1">
          <mxGeometry x="865" y="1800" width="60" height="30" as="geometry" />
        </mxCell>
        <mxCell id="ObmRaE6gTi8aWYttkkPQ-12" value="dd/mm/yyyy" style="text;html=1;strokeColor=none;fillColor=none;align=center;verticalAlign=middle;whiteSpace=wrap;rounded=0;" vertex="1" parent="1">
          <mxGeometry x="865" y="2030" width="60" height="30" as="geometry" />
        </mxCell>
        <mxCell id="ObmRaE6gTi8aWYttkkPQ-14" value="Image" style="rounded=0;whiteSpace=wrap;html=1;" vertex="1" parent="1">
          <mxGeometry x="925" y="1630" width="200" height="130" as="geometry" />
        </mxCell>
        <mxCell id="ObmRaE6gTi8aWYttkkPQ-15" value="Image" style="rounded=0;whiteSpace=wrap;html=1;" vertex="1" parent="1">
          <mxGeometry x="925" y="1860" width="200" height="130" as="geometry" />
        </mxCell>
        <mxCell id="ObmRaE6gTi8aWYttkkPQ-16" value="Image" style="rounded=0;whiteSpace=wrap;html=1;" vertex="1" parent="1">
          <mxGeometry x="925" y="2090" width="200" height="130" as="geometry" />
        </mxCell>
        <mxCell id="ObmRaE6gTi8aWYttkkPQ-17" value="&lt;h1&gt;Heading&lt;/h1&gt;&lt;p&gt;Lorem ipsum dolor sit amet, consectetur adipisicing elit, sed do eiusmod tempor incididunt ut labore et dolore magna aliqua.&lt;/p&gt;" style="text;html=1;strokeColor=none;fillColor=none;spacing=5;spacingTop=-20;whiteSpace=wrap;overflow=hidden;rounded=0;" vertex="1" parent="1">
          <mxGeometry x="695" y="2090" width="190" height="120" as="geometry" />
        </mxCell>
        <mxCell id="ObmRaE6gTi8aWYttkkPQ-18" value="&lt;h1&gt;Heading&lt;/h1&gt;&lt;p&gt;Lorem ipsum dolor sit amet, consectetur adipisicing elit, sed do eiusmod tempor incididunt ut labore et dolore magna aliqua.&lt;/p&gt;" style="text;html=1;strokeColor=none;fillColor=none;spacing=5;spacingTop=-20;whiteSpace=wrap;overflow=hidden;rounded=0;" vertex="1" parent="1">
          <mxGeometry x="695" y="1860" width="190" height="120" as="geometry" />
        </mxCell>
        <mxCell id="ObmRaE6gTi8aWYttkkPQ-19" value="&lt;h1&gt;Heading&lt;/h1&gt;&lt;p&gt;Lorem ipsum dolor sit amet, consectetur adipisicing elit, sed do eiusmod tempor incididunt ut labore et dolore magna aliqua.&lt;/p&gt;" style="text;html=1;strokeColor=none;fillColor=none;spacing=5;spacingTop=-20;whiteSpace=wrap;overflow=hidden;rounded=0;" vertex="1" parent="1">
          <mxGeometry x="690" y="1630" width="190" height="120" as="geometry" />
        </mxCell>
        <mxCell id="ObmRaE6gTi8aWYttkkPQ-20" value="" style="whiteSpace=wrap;html=1;rounded=0;" vertex="1" parent="1">
          <mxGeometry x="960" y="990" width="480" height="450" as="geometry" />
        </mxCell>
        <mxCell id="ObmRaE6gTi8aWYttkkPQ-22" value="image" style="rounded=0;whiteSpace=wrap;html=1;rotation=90;" vertex="1" parent="1">
          <mxGeometry x="990" y="1110" width="120" height="60" as="geometry" />
        </mxCell>
        <mxCell id="ObmRaE6gTi8aWYttkkPQ-23" value="&#xa;&#xa;&lt;span style=&quot;color: rgb(0, 0, 0); font-family: helvetica; font-size: 12px; font-style: normal; font-weight: 400; letter-spacing: normal; text-align: center; text-indent: 0px; text-transform: none; word-spacing: 0px; background-color: rgb(255, 255, 255); display: inline; float: none;&quot;&gt;image&lt;/span&gt;&#xa;&#xa;" style="rounded=0;whiteSpace=wrap;html=1;rotation=90;" vertex="1" parent="1">
          <mxGeometry x="990" y="1280" width="120" height="60" as="geometry" />
        </mxCell>
        <mxCell id="ObmRaE6gTi8aWYttkkPQ-24" value="image" style="rounded=0;whiteSpace=wrap;html=1;rotation=90;" vertex="1" parent="1">
          <mxGeometry x="1090" y="1110" width="120" height="60" as="geometry" />
        </mxCell>
        <mxCell id="ObmRaE6gTi8aWYttkkPQ-25" value="&#xa;&#xa;&lt;span style=&quot;color: rgb(0, 0, 0); font-family: helvetica; font-size: 12px; font-style: normal; font-weight: 400; letter-spacing: normal; text-align: center; text-indent: 0px; text-transform: none; word-spacing: 0px; background-color: rgb(255, 255, 255); display: inline; float: none;&quot;&gt;image&lt;/span&gt;&#xa;&#xa;" style="rounded=0;whiteSpace=wrap;html=1;rotation=90;" vertex="1" parent="1">
          <mxGeometry x="1190" y="1110" width="120" height="60" as="geometry" />
        </mxCell>
        <mxCell id="ObmRaE6gTi8aWYttkkPQ-26" value="&#xa;&#xa;&lt;span style=&quot;color: rgb(0, 0, 0); font-family: helvetica; font-size: 12px; font-style: normal; font-weight: 400; letter-spacing: normal; text-align: center; text-indent: 0px; text-transform: none; word-spacing: 0px; background-color: rgb(255, 255, 255); display: inline; float: none;&quot;&gt;image&lt;/span&gt;&#xa;&#xa;" style="rounded=0;whiteSpace=wrap;html=1;rotation=90;" vertex="1" parent="1">
          <mxGeometry x="1290" y="1110" width="120" height="60" as="geometry" />
        </mxCell>
        <mxCell id="ObmRaE6gTi8aWYttkkPQ-27" value="&#xa;&#xa;&lt;span style=&quot;color: rgb(0, 0, 0); font-family: helvetica; font-size: 12px; font-style: normal; font-weight: 400; letter-spacing: normal; text-align: center; text-indent: 0px; text-transform: none; word-spacing: 0px; background-color: rgb(255, 255, 255); display: inline; float: none;&quot;&gt;image&lt;/span&gt;&#xa;&#xa;" style="rounded=0;whiteSpace=wrap;html=1;rotation=90;" vertex="1" parent="1">
          <mxGeometry x="1090" y="1280" width="120" height="60" as="geometry" />
        </mxCell>
        <mxCell id="ObmRaE6gTi8aWYttkkPQ-28" value="&#xa;&#xa;&lt;span style=&quot;color: rgb(0, 0, 0); font-family: helvetica; font-size: 12px; font-style: normal; font-weight: 400; letter-spacing: normal; text-align: center; text-indent: 0px; text-transform: none; word-spacing: 0px; background-color: rgb(255, 255, 255); display: inline; float: none;&quot;&gt;image&lt;/span&gt;&#xa;&#xa;" style="rounded=0;whiteSpace=wrap;html=1;rotation=90;" vertex="1" parent="1">
          <mxGeometry x="1190" y="1280" width="120" height="60" as="geometry" />
        </mxCell>
        <mxCell id="ObmRaE6gTi8aWYttkkPQ-29" value="&#xa;&#xa;&lt;span style=&quot;color: rgb(0, 0, 0); font-family: helvetica; font-size: 12px; font-style: normal; font-weight: 400; letter-spacing: normal; text-align: center; text-indent: 0px; text-transform: none; word-spacing: 0px; background-color: rgb(255, 255, 255); display: inline; float: none;&quot;&gt;image&lt;/span&gt;&#xa;&#xa;" style="rounded=0;whiteSpace=wrap;html=1;rotation=90;" vertex="1" parent="1">
          <mxGeometry x="1290" y="1280" width="120" height="60" as="geometry" />
        </mxCell>
        <mxCell id="ObmRaE6gTi8aWYttkkPQ-30" value="teachers" style="rounded=0;whiteSpace=wrap;html=1;" vertex="1" parent="1">
          <mxGeometry x="960" y="990" width="480" height="60" as="geometry" />
        </mxCell>
        <mxCell id="ObmRaE6gTi8aWYttkkPQ-31" value="description" style="text;html=1;strokeColor=none;fillColor=none;align=center;verticalAlign=middle;whiteSpace=wrap;rounded=0;" vertex="1" parent="1">
          <mxGeometry x="1020" y="1200" width="60" height="30" as="geometry" />
        </mxCell>
        <mxCell id="ObmRaE6gTi8aWYttkkPQ-32" value="description" style="text;html=1;strokeColor=none;fillColor=none;align=center;verticalAlign=middle;whiteSpace=wrap;rounded=0;" vertex="1" parent="1">
          <mxGeometry x="1020" y="1370" width="60" height="30" as="geometry" />
        </mxCell>
        <mxCell id="ObmRaE6gTi8aWYttkkPQ-33" value="description" style="text;html=1;strokeColor=none;fillColor=none;align=center;verticalAlign=middle;whiteSpace=wrap;rounded=0;" vertex="1" parent="1">
          <mxGeometry x="1120" y="1200" width="60" height="30" as="geometry" />
        </mxCell>
        <mxCell id="ObmRaE6gTi8aWYttkkPQ-34" value="description" style="text;html=1;strokeColor=none;fillColor=none;align=center;verticalAlign=middle;whiteSpace=wrap;rounded=0;" vertex="1" parent="1">
          <mxGeometry x="1220" y="1200" width="60" height="30" as="geometry" />
        </mxCell>
        <mxCell id="ObmRaE6gTi8aWYttkkPQ-35" value="description" style="text;html=1;strokeColor=none;fillColor=none;align=center;verticalAlign=middle;whiteSpace=wrap;rounded=0;" vertex="1" parent="1">
          <mxGeometry x="1320" y="1200" width="60" height="30" as="geometry" />
        </mxCell>
        <mxCell id="ObmRaE6gTi8aWYttkkPQ-36" value="description" style="text;html=1;strokeColor=none;fillColor=none;align=center;verticalAlign=middle;whiteSpace=wrap;rounded=0;" vertex="1" parent="1">
          <mxGeometry x="1220" y="1370" width="60" height="30" as="geometry" />
        </mxCell>
        <mxCell id="ObmRaE6gTi8aWYttkkPQ-37" value="description" style="text;html=1;strokeColor=none;fillColor=none;align=center;verticalAlign=middle;whiteSpace=wrap;rounded=0;" vertex="1" parent="1">
          <mxGeometry x="1120" y="1370" width="60" height="30" as="geometry" />
        </mxCell>
        <mxCell id="ObmRaE6gTi8aWYttkkPQ-38" value="description" style="text;html=1;strokeColor=none;fillColor=none;align=center;verticalAlign=middle;whiteSpace=wrap;rounded=0;" vertex="1" parent="1">
          <mxGeometry x="1320" y="1370" width="60" height="30" as="geometry" />
        </mxCell>
        <mxCell id="ObmRaE6gTi8aWYttkkPQ-40" value="snewspaper" style="rounded=0;whiteSpace=wrap;html=1;" vertex="1" parent="1">
          <mxGeometry x="1310" y="380" width="80" height="40" as="geometry" />
        </mxCell>
        <mxCell id="ObmRaE6gTi8aWYttkkPQ-41" value="calendar" style="rounded=0;whiteSpace=wrap;html=1;" vertex="1" parent="1">
          <mxGeometry x="1210" y="380" width="80" height="40" as="geometry" />
        </mxCell>
        <mxCell id="ObmRaE6gTi8aWYttkkPQ-42" value="schedule" style="rounded=0;whiteSpace=wrap;html=1;" vertex="1" parent="1">
          <mxGeometry x="1100" y="380" width="80" height="40" as="geometry" />
        </mxCell>
        <mxCell id="ObmRaE6gTi8aWYttkkPQ-43" value="info" style="rounded=0;whiteSpace=wrap;html=1;" vertex="1" parent="1">
          <mxGeometry x="985" y="380" width="80" height="40" as="geometry" />
        </mxCell>
        <mxCell id="ObmRaE6gTi8aWYttkkPQ-44" value="teachers" style="rounded=0;whiteSpace=wrap;html=1;" vertex="1" parent="1">
          <mxGeometry x="1420" y="380" width="80" height="40" as="geometry" />
        </mxCell>
      </root>
    </mxGraphModel>
  </diagram>
</mxfile>
